# This file uses centimeters as units for non-parametric coordinates.

mtllib S_Casa_vermelha_comunidade.mtl
g default
v -12.518665 0.000000 -12.481363
v -12.481274 0.000000 12.518629
v 12.481258 0.000000 -12.518648
v 12.518681 0.000000 12.481291
v -12.518665 13.950020 -12.481363
v -12.481274 13.950020 12.518629
v 12.518681 13.950020 12.481291
v 12.481258 13.950020 -12.518648
v -13.223324 13.950020 -13.183985
v -13.184040 13.950020 13.223501
v -13.184040 15.000000 13.223501
v -13.223324 15.000000 -13.183985
v 13.184017 15.000000 -13.223505
v 13.223324 15.000000 13.183897
v 13.223324 13.950020 13.183897
v 13.184017 13.950020 -13.223505
v 8.285587 15.000000 13.193205
v 8.285587 13.950020 13.193205
v 8.298611 13.950020 12.487532
v 8.298611 0.000000 12.487532
v 8.261211 0.000000 -12.512445
v 8.261211 13.950020 -12.512445
v 8.246296 13.950020 -13.214243
v 8.246296 15.000000 -13.214243
v 2.683964 15.000000 13.199980
v 2.683964 13.950020 13.199980
v 2.620037 13.950020 12.496153
v 2.620037 0.000000 12.496153
v -0.427593 0.000000 -12.499598
v -0.427593 13.950020 -12.499598
v -0.518734 13.950020 -13.202044
v -0.518734 15.000000 -13.202044
v -12.518665 9.974077 -12.481363
v -12.481274 9.974077 12.518629
v 2.620037 9.974077 12.496153
v 8.298611 9.974077 12.487532
v 12.518681 9.974077 12.481291
v 12.481258 9.974077 -12.518648
v 8.261211 9.974077 -12.512445
v -0.427593 9.974077 -12.499598
v -12.518665 4.623667 -12.481363
v -12.481274 4.623667 12.518629
v 8.261211 4.623667 -12.512445
v -0.427593 4.623667 -12.499598
v 2.620037 4.623667 12.496153
v 8.298611 4.623667 12.487532
v 12.518681 4.623667 12.481291
v 12.481258 4.623667 -12.518648
v -10.069363 15.000000 13.216619
v -10.069363 13.950020 13.216619
v -10.060017 13.950020 12.514921
v -10.060017 9.974077 12.514921
v -10.060017 4.623667 12.514921
v -10.060017 0.000000 12.514921
v -10.097393 0.000000 -12.485102
v -10.097393 4.623667 -12.485102
v -10.097393 9.974077 -12.485102
v -10.097393 13.950020 -12.485102
v -10.108692 13.950020 -13.190783
v -10.108692 15.000000 -13.190783
v 8.297413 0.000000 11.687986
v 2.572948 0.000000 11.696669
v 8.297405 4.623667 11.687529
v 8.297405 9.974077 11.687529
v 2.618824 9.974077 11.696157
v 2.618824 4.623667 11.696157
v -0.426403 9.974077 -11.699602
v -10.096195 9.974077 -11.685114
v -0.426403 4.623667 -11.699602
v -10.096195 4.623667 -11.685114
v 12.517239 13.950020 11.633406
v 12.517498 9.974077 11.682180
v 12.517498 4.623667 11.682180
v 12.517490 0.000000 11.682196
v -10.061207 0.000000 11.715811
v -12.482471 0.000000 11.719526
v -12.482471 4.623667 11.719526
v -12.482471 9.974077 11.719526
v -12.482235 13.950020 11.763845
v -13.188496 13.950020 11.767523
v -13.188496 15.000000 11.767523
v -10.073193 15.000000 11.751272
v 2.583378 15.000000 11.685247
v 8.281620 15.000000 11.655516
v 13.218388 15.000000 11.629766
v 13.218388 13.950020 11.629766
vt 0.548146 0.823807
vt 0.542555 0.823802
vt 0.542684 0.690955
vt 0.548275 0.690960
vt 0.694350 0.823974
vt 0.688759 0.823969
vt 0.688887 0.691617
vt 0.694479 0.691623
vt 0.321100 0.138260
vt 0.298630 0.138248
vt 0.298695 0.009384
vt 0.321166 0.009398
vt 0.662612 0.683316
vt 0.662616 0.677726
vt 0.688904 0.677747
vt 0.688899 0.683340
vt 0.688753 0.829559
vt 0.662461 0.829529
vt 0.662467 0.823937
vt 0.538812 0.820053
vt 0.517641 0.820036
vt 0.517752 0.691178
vt 0.538924 0.690965
vt 0.662693 0.673969
vt 0.662710 0.652800
vt 0.685181 0.652821
vt 0.685162 0.673995
vt 0.719270 0.820248
vt 0.698100 0.820229
vt 0.698213 0.691614
vt 0.719385 0.691378
vt 0.684973 0.854471
vt 0.662503 0.854441
vt 0.662530 0.833267
vt 0.685000 0.833301
vt 0.662598 0.691503
vt 0.632787 0.683290
vt 0.632792 0.677699
vt 0.632459 0.673950
vt 0.632473 0.652779
vt 0.367366 0.138284
vt 0.351647 0.009413
vt 0.616237 0.854391
vt 0.616262 0.833218
vt 0.615787 0.829476
vt 0.615794 0.823885
vt 0.632256 0.691356
vt 0.564876 0.683227
vt 0.564879 0.677636
vt 0.564938 0.673900
vt 0.564955 0.652728
vt 0.418856 0.138310
vt 0.418921 0.009446
vt 0.564746 0.854339
vt 0.564773 0.833174
vt 0.564723 0.829418
vt 0.564730 0.823829
vt 0.564863 0.691031
vt 0.489152 0.820013
vt 0.464532 0.819993
vt 0.464642 0.691131
vt 0.489262 0.691152
vt 0.564976 0.624239
vt 0.564994 0.599619
vt 0.632512 0.599668
vt 0.632494 0.624288
vt 0.662736 0.624310
vt 0.685207 0.624331
vt 0.747760 0.820273
vt 0.747875 0.691406
vt 0.684908 0.907582
vt 0.662438 0.907554
vt 0.662468 0.882934
vt 0.684938 0.882962
vt 0.616203 0.882881
vt 0.662759 0.599691
vt 0.685230 0.599711
vt 0.772495 0.691428
vt 0.772379 0.820296
vt 0.616173 0.907501
vt 0.564684 0.907445
vt 0.564713 0.882826
vt 0.548290 0.677624
vt 0.548285 0.683212
vt 0.552044 0.673883
vt 0.552062 0.652717
vt 0.552083 0.624229
vt 0.552101 0.599609
vt 0.431814 0.009452
vt 0.431749 0.138316
vt 0.551820 0.882811
vt 0.551791 0.907430
vt 0.551854 0.854323
vt 0.551880 0.833153
vt 0.548140 0.829399
vt 0.701850 0.863114
vt 0.732087 0.863129
vt 0.732074 0.891618
vt 0.701837 0.891603
vt 0.367235 0.360244
vt 0.315747 0.360244
vt 0.315748 0.331755
vt 0.367236 0.331755
vt 0.949062 0.437537
vt 0.949062 0.462156
vt 0.944802 0.462156
vt 0.944805 0.437537
vt 0.949062 0.490646
vt 0.944802 0.490646
vt 0.949062 0.520883
vt 0.944802 0.520883
vt 0.949062 0.549372
vt 0.944802 0.549372
vt 0.949062 0.573992
vt 0.944797 0.573994
vt 0.971361 0.477276
vt 0.971360 0.425789
vt 0.975620 0.425789
vt 0.975620 0.477276
vt 0.971360 0.585741
vt 0.971360 0.557253
vt 0.975620 0.557253
vt 0.975620 0.585741
vt 0.971361 0.505765
vt 0.975620 0.505765
vt 0.698220 0.687100
vt 0.719389 0.687123
vt 0.747879 0.687150
vt 0.772499 0.687173
vt 0.298697 0.005129
vt 0.321168 0.005141
vt 0.351405 0.005155
vt 0.418923 0.005191
vt 0.431816 0.005197
vt 0.464646 0.686876
vt 0.489266 0.686897
vt 0.517757 0.686923
vt 0.538931 0.686946
vt 0.542690 0.683206
vt 0.694486 0.683346
vt 0.701618 0.838494
vt 0.732099 0.838508
vn -0.999999 0.000000 0.001396
vn -0.999999 0.000000 0.001396
vn -0.999999 0.000000 0.001488
vn -0.999999 0.000000 0.001488
vn 0.999999 0.000000 -0.001383
vn 0.999999 0.000000 -0.001383
vn 0.999999 0.000000 -0.001488
vn 0.999999 0.000000 -0.001488
vn 0.000000 -1.000000 0.000000
vn 0.000000 -1.000000 0.000000
vn 0.000000 -1.000000 0.000000
vn 0.000000 -1.000000 0.000000
vn 0.001526 0.000000 0.999999
vn 0.001526 0.000000 0.999999
vn 0.001885 0.000000 0.999998
vn 0.001885 0.000000 0.999998
vn -0.001876 0.000000 -0.999998
vn -0.001566 0.000000 -0.999999
vn -0.001566 0.000000 -0.999999
vn -0.001876 0.000000 -0.999998
vn -0.999999 0.000021 0.001499
vn -0.999999 0.000009 0.001497
vn -0.999999 0.000009 0.001496
vn -0.999999 0.000021 0.001496
vn 0.001501 0.000000 0.999999
vn 0.001493 0.000000 0.999999
vn 0.001479 0.000000 0.999999
vn 0.001479 0.000000 0.999999
vn 0.999999 0.000010 -0.001496
vn 0.999999 0.000023 -0.001494
vn 0.999999 0.000023 -0.001497
vn 0.999999 0.000010 -0.001497
vn -0.001470 0.000000 -0.999999
vn -0.001476 0.000000 -0.999999
vn -0.001476 0.000000 -0.999999
vn -0.001470 0.000000 -0.999999
vn 0.000000 -1.000000 -0.000000
vn 0.000000 -1.000000 0.000000
vn 0.000000 -1.000000 0.000000
vn 0.000000 -1.000000 -0.000000
vn 0.000000 -1.000000 0.000000
vn 0.000000 -1.000000 -0.000000
vn 0.000000 -1.000000 -0.000000
vn 0.000000 -1.000000 0.000000
vn 0.000000 -1.000000 0.000000
vn 0.000000 -1.000000 0.000000
vn 0.000000 -1.000000 0.000000
vn 0.000000 -1.000000 0.000000
vn 0.000000 -1.000000 0.000001
vn 0.000000 -1.000000 0.000001
vn 0.000000 1.000000 0.000000
vn 0.000000 1.000000 0.000000
vn 0.000000 1.000000 0.000000
vn 0.000000 1.000000 0.000000
vn 0.001276 0.000000 0.999999
vn 0.001276 0.000000 0.999999
vn 0.000000 -1.000000 0.000000
vn 0.000000 -1.000000 0.000000
vn 0.001492 0.000000 0.999999
vn 0.001486 0.000000 0.999999
vn 0.000000 -1.000000 0.000000
vn 0.000000 -1.000000 0.000000
vn -0.001485 0.000000 -0.999999
vn -0.001489 0.000000 -0.999999
vn 0.000000 -1.000000 0.000002
vn 0.000000 -1.000000 0.000002
vn -0.001278 0.000000 -0.999999
vn -0.001278 0.000000 -0.999999
vn 0.000000 1.000000 -0.000000
vn 0.000000 1.000000 -0.000000
vn 0.001482 0.000000 0.999999
vn 0.001482 0.000000 0.999999
vn 0.000000 -1.000000 -0.000000
vn 0.000000 -1.000000 -0.000000
vn 0.001488 0.000000 0.999999
vn 0.001488 0.000000 0.999999
vn 0.000000 -1.000000 0.000000
vn 0.000000 -1.000000 0.000000
vn -0.001516 0.000000 -0.999999
vn -0.001508 0.000000 -0.999999
vn 0.000000 -1.000000 0.000002
vn 0.000000 -1.000000 0.000002
vn -0.001421 0.000000 -0.999999
vn -0.001421 0.000000 -0.999999
vn 0.000000 1.000000 -0.000000
vn 0.000000 1.000000 -0.000000
vn -0.999999 0.000000 0.001496
vn -0.999999 0.000000 0.001496
vn -0.999999 0.000000 0.001496
vn -0.999999 0.000000 0.001496
vn 0.001488 0.000000 0.999999
vn 0.001488 0.000000 0.999999
vn 0.001480 0.000000 0.999999
vn 0.001480 0.000000 0.999999
vn 0.001479 0.000000 0.999999
vn 0.001479 0.000000 0.999999
vn 0.999999 -0.000000 -0.001497
vn 0.999999 -0.000000 -0.001497
vn -0.001470 0.000000 -0.999999
vn -0.001476 0.000000 -0.999999
vn -0.001476 0.000000 -0.999999
vn -0.001470 0.000000 -0.999999
vn -0.001486 0.000000 -0.999999
vn 0.001479 0.000000 0.999999
vn 0.001479 0.000000 0.999999
vn 0.999999 -0.000001 -0.001497
vn 0.999999 -0.000001 -0.001497
vn -0.001489 0.000000 -0.999999
vn -0.001508 0.000000 -0.999999
vn -0.001515 0.000000 -0.999999
vn 0.000000 1.000000 0.000000
vn 0.000000 1.000000 0.000000
vn 0.002209 0.000000 0.999998
vn 0.002209 0.000000 0.999998
vn 0.000000 -1.000000 -0.000001
vn 0.000000 -1.000000 -0.000001
vn 0.001531 0.000000 0.999999
vn 0.001531 0.000000 0.999999
vn 0.001531 0.000000 0.999999
vn 0.001531 0.000000 0.999999
vn 0.000000 -1.000000 0.000000
vn 0.000000 -1.000000 0.000000
vn -0.001544 0.000000 -0.999999
vn -0.001544 0.000000 -0.999999
vn -0.001544 0.000000 -0.999999
vn -0.001544 0.000000 -0.999999
vn -0.002183 0.000000 -0.999998
vn -0.002183 0.000000 -0.999998
vn 0.001519 0.000045 0.999999
vn 0.001519 0.000045 0.999999
vn 0.001519 0.000000 0.999999
vn 0.001519 0.000000 0.999999
vn -0.001498 0.000000 -0.999999
vn -0.001498 0.000000 -0.999999
vn -0.001498 0.000000 -0.999999
vn -0.001498 0.000000 -0.999999
vn -0.999999 -0.000001 0.001502
vn -0.999999 -0.000000 0.001505
vn -0.999999 -0.000000 0.001505
vn -0.999999 -0.000001 0.001502
vn -0.999999 0.000000 0.001507
vn -0.999999 0.000000 0.001507
vn 0.000000 -1.000000 0.000000
vn 0.000000 -1.000000 0.000000
vn 0.000000 -1.000000 0.000000
vn 0.000000 -1.000000 0.000000
vn 0.999999 0.000000 -0.001516
vn 0.999888 -0.002300 -0.014808
vn 0.999888 -0.002300 -0.014808
vn 0.999999 0.000000 -0.001516
vn 0.999532 -0.004960 -0.030184
vn 0.999532 -0.004960 -0.030184
vn 0.000000 -1.000000 -0.000000
vn 0.000000 -1.000000 -0.000000
vn 0.000000 -1.000000 -0.000000
vn 0.000000 -1.000000 -0.000000
vn -0.999999 0.000000 0.001488
vn -0.999999 0.000000 0.001488
vn -0.999999 0.000000 0.001488
vn -0.999999 0.000000 0.001488
vn 0.000000 1.000000 -0.000000
vn 0.000000 1.000000 -0.000000
vn 0.000000 1.000000 -0.000000
vn 0.000000 1.000000 -0.000000
vn 0.999999 0.000000 -0.001497
vn 0.999999 0.000000 -0.001497
vn 0.999999 0.000000 -0.001497
vn 0.999999 0.000000 -0.001497
vn 0.999999 0.000023 -0.001594
vn 0.999999 0.000010 -0.001529
vn 0.999999 -0.000000 -0.001482
vn 0.999999 -0.000001 -0.001485
vn 0.000000 -1.000000 0.000000
vn 0.000000 -1.000000 0.000000
vn 0.000000 -1.000000 0.000000
vn 0.000000 -1.000000 0.000000
vn 0.000000 -1.000000 0.000000
vn -0.999999 0.000000 0.001499
vn -0.999999 0.000000 0.001499
vn -0.999999 0.000009 0.001453
vn -0.999999 0.000022 0.001389
vn -0.999995 0.000000 0.003060
vn -0.999995 0.000000 0.003060
vn 0.000000 1.000000 0.000000
vn 0.000000 1.000000 0.000000
vn 0.000000 1.000000 0.000000
vn 0.000000 1.000000 0.000000
vn 0.000000 1.000000 0.000000
vn 0.999995 0.000000 -0.003176
vn 0.999995 0.000000 -0.003176
vn 0.001518 0.000097 0.999999
vn 0.001518 0.000097 0.999999
s 1
g casa_vermelha1 Casas_comunidade
usemtl initialShadingGroup
f 12/1/1 9/2/2 80/3/3 81/4/4
s 2
f 16/5/5 13/6/6 85/7/7 86/8/8
s 3
f 21/9/9 3/10/10 74/11/11 61/12/12
s 4
f 17/13/13 18/14/14 15/15/15 14/16/16
s 5
f 16/17/17 23/18/18 24/19/19 13/6/20
s 6
f 5/20/21 33/21/22 78/22/23 79/23/24
s 7
f 19/24/25 36/25/26 37/26/27 7/27/28
s 8
f 38/28/29 8/29/30 71/30/31 72/31/32
s 9
f 38/32/33 39/33/34 22/34/35 8/35/36
s 10
f 80/3/37 9/2/38 5/20/39 79/23/40
f 16/5/41 86/8/42 71/30/43 8/29/44
f 18/14/45 19/24/46 7/27/47 15/15/48
f 8/35/44 22/34/49 23/18/50 16/17/41
s 13
f 85/7/51 13/6/52 24/19/53 84/36/54
s 4
f 25/37/55 26/38/56 18/14/14 17/13/13
s 10
f 26/38/57 27/39/58 19/24/46 18/14/45
s 7
f 27/39/59 35/40/60 36/25/26 19/24/25
s 3
f 29/41/61 21/9/9 61/12/12 62/42/62
s 9
f 22/34/35 39/33/34 40/43/63 30/44/64
s 10
f 23/18/50 22/34/49 30/44/65 31/45/66
s 5
f 24/19/19 23/18/18 31/45/67 32/46/68
s 13
f 84/36/54 24/19/53 32/46/69 83/47/70
s 4
f 49/48/71 50/49/72 26/38/56 25/37/55
s 10
f 50/49/73 51/50/74 27/39/58 26/38/57
s 7
f 51/50/75 52/51/76 35/40/60 27/39/59
s 3
f 55/52/77 29/41/61 62/42/62 75/53/78
s 9
f 30/44/64 40/43/63 57/54/79 58/55/80
s 10
f 31/45/66 30/44/65 58/55/81 59/56/82
s 5
f 32/46/68 31/45/67 59/56/83 60/57/84
s 13
f 83/47/70 32/46/69 60/57/85 82/58/86
s 6
f 41/59/87 1/60/88 76/61/89 77/62/90
s 7
f 53/63/91 54/64/92 28/65/93 45/66/94
f 37/26/27 36/25/26 46/67/95 47/68/96
s 8
f 48/69/97 38/28/29 72/31/32 73/70/98
s 9
f 3/71/99 21/72/100 43/73/101 48/74/102
f 40/43/63 39/33/34 43/73/101 44/75/103
s 6
f 78/22/23 33/21/22 41/59/87 77/62/90
s 7
f 52/51/76 53/63/91 45/66/94 35/40/60
f 47/68/96 46/67/95 20/76/104 4/77/105
s 8
f 74/78/106 3/79/107 48/69/97 73/70/98
s 9
f 48/74/102 43/73/101 39/33/34 38/32/33
f 44/75/103 43/73/101 21/72/100 29/80/108
f 55/81/109 56/82/110 44/75/103 29/80/108
s 13
f 82/58/86 60/57/85 12/1/111 81/4/112
s 4
f 10/83/113 50/49/72 49/48/71 11/84/114
s 10
f 6/85/115 51/50/74 50/49/73 10/83/116
s 7
f 34/86/117 52/51/76 51/50/75 6/85/118
f 42/87/119 53/63/91 52/51/76 34/86/117
f 2/88/120 54/64/92 53/63/91 42/87/119
s 3
f 76/89/121 1/90/122 55/52/77 75/53/78
s 9
f 41/91/123 56/82/110 55/81/109 1/92/124
f 33/93/125 57/54/79 56/82/110 41/91/123
f 58/55/80 57/54/79 33/93/125 5/94/126
s 10
f 59/56/82 58/55/81 5/94/39 9/95/38
s 5
f 60/57/84 59/56/83 9/95/127 12/1/128
s 17
f 66/96/129 63/97/130 64/98/131 65/99/132
s off
f 68/100/133 67/101/134 69/102/135 70/103/136
s 18
f 20/104/137 46/105/138 63/106/139 61/107/140
f 46/105/138 36/108/141 64/109/142 63/106/139
s off
f 36/108/143 35/110/144 65/111/145 64/109/146
s 19
f 35/110/147 45/112/148 66/113/149 65/111/150
f 45/112/148 28/114/151 62/115/152 66/113/149
s off
f 57/116/153 40/117/154 67/118/155 68/119/156
f 40/120/157 44/121/158 69/122/159 67/123/160
f 44/121/161 56/124/162 70/125/163 69/122/164
f 56/124/165 57/116/166 68/119/167 70/125/168
s 8
f 72/31/32 71/30/31 7/126/169 37/127/170
f 73/70/98 72/31/32 37/127/170 47/128/171
f 74/78/106 73/70/98 47/128/171 4/129/172
s 3
f 61/12/12 74/11/11 4/130/173 20/131/174
f 75/53/78 62/42/62 28/132/175 54/133/176
f 76/89/121 75/53/78 54/133/176 2/134/177
s 6
f 77/62/90 76/61/89 2/135/178 42/136/179
f 78/22/23 77/62/90 42/136/179 34/137/180
f 79/23/24 78/22/23 34/137/180 6/138/181
s 10
f 80/3/37 79/23/40 6/138/115 10/139/116
s 1
f 81/4/4 80/3/3 10/139/182 11/84/183
s 13
f 11/84/184 49/48/185 82/58/86 81/4/112
f 25/37/186 83/47/70 82/58/86 49/48/185
f 17/13/187 84/36/54 83/47/70 25/37/186
f 17/13/187 14/16/188 85/7/51 84/36/54
s 2
f 86/8/8 85/7/7 14/16/189 15/140/190
s 10
f 7/126/47 71/30/43 86/8/42 15/140/48
s 17
f 62/141/191 61/142/192 63/97/130 66/96/129
