# This file uses centimeters as units for non-parametric coordinates.

mtllib S_Casa_rosa_comunidade.mtl
g default
v 12.555613 -0.000004 12.444319
v 12.444170 -0.000004 -12.555490
v -12.444098 -0.000004 12.555708
v -12.555616 -0.000004 -12.444025
v 12.555613 13.950008 12.444319
v 12.444170 13.950008 -12.555490
v -12.555616 13.950008 -12.444025
v -12.444098 13.950008 12.555708
v 13.262377 13.950008 13.144781
v 13.144800 13.950008 -13.262400
v 13.144800 15.000004 -13.262400
v 13.262377 15.000004 13.144781
v -13.145185 15.000004 13.262403
v -13.262373 15.000004 -13.144518
v -13.262373 13.950008 -13.144518
v -13.145185 13.950008 13.262403
v -8.395765 15.000004 -13.166376
v -8.395765 13.950008 -13.166376
v -8.382437 13.950008 -12.462618
v -8.335539 -0.000004 -12.462816
v -8.224234 -0.000004 12.496809
v -8.184050 13.950008 12.536772
v -8.178297 13.950008 13.240400
v -8.178297 15.000004 13.240400
v -2.806433 15.000004 -13.191172
v -2.806433 13.950008 -13.191172
v -2.657034 13.950008 -12.488260
v -2.657034 -0.000004 -12.488260
v -2.545561 -0.000004 12.511549
v -2.545561 13.950008 12.511549
v -2.689230 13.950008 13.215719
v -2.689230 15.000004 13.215719
v 12.555613 9.974081 12.444319
v 12.444170 9.974081 -12.555490
v -2.657034 9.974080 -12.488260
v -8.335539 9.974080 -12.462816
v -12.555616 9.974080 -12.444025
v -12.444098 9.974080 12.555708
v -8.184057 9.974081 12.536779
v -2.545561 9.974081 12.511549
v -2.545561 4.672750 12.511549
v 12.555613 4.699620 12.444319
v 12.444170 4.699620 -12.555490
v -2.657034 4.699613 -12.488260
v -8.335539 4.699609 -12.462816
v -12.555616 4.699613 -12.444025
v -12.444098 4.699613 12.555708
v -8.224234 4.699620 12.496809
v -0.897612 15.000004 -13.199678
v -0.897612 13.950008 -13.199678
v -0.849813 13.950008 -12.496164
v -0.849813 9.974080 -12.496164
v -0.849813 4.699613 -12.496164
v -0.849813 -0.000004 -12.496164
v -0.738363 -0.000004 12.503645
v -0.738363 4.672750 12.503645
v -0.738363 9.974081 12.503645
v -0.738363 13.950008 12.503645
v -0.780439 13.950008 13.207281
v -0.780439 15.000004 13.207281
v 10.364824 15.000004 -13.250101
v 10.364824 13.950008 -13.250101
v 10.370584 13.950008 -12.546381
v 10.370584 9.974081 -12.546419
v 10.370584 4.699620 -12.546419
v 10.370584 -0.000004 -12.546419
v 10.575098 -0.000004 12.452978
v 10.575098 4.699620 12.452978
v 10.575098 9.974081 12.452978
v 10.575106 13.950008 12.453009
v 10.580858 13.950008 13.156652
v 10.580858 15.000004 13.156652
v -2.549139 -0.000004 11.712584
v -2.549147 4.672750 11.711546
v -2.549147 9.974081 11.711546
v -8.190451 9.974081 11.736799
v -8.190451 4.699444 11.736792
v -8.190588 -0.000004 11.737829
v -2.653456 4.699613 -11.688257
v -8.331961 4.699609 -11.662813
v -8.331961 9.974080 -11.662813
v -2.653456 9.974080 -11.688257
v 10.500971 4.828723 11.653288
v 10.500971 9.844675 11.653288
v -0.741941 9.974081 11.703650
v -0.741941 4.672750 11.703650
v 12.552057 -0.000004 11.646391
v 10.568567 -0.000004 11.655058
v -0.741926 -0.000004 11.705725
v -12.447653 -0.000004 11.757788
v -12.447660 4.699613 11.757780
v -12.447660 9.974080 11.757780
v -12.447638 13.950008 11.762289
v -13.151838 13.950008 11.764769
v -13.151838 15.000004 11.764769
v -8.190512 15.000004 11.746840
v -2.621023 15.000004 11.727720
v -0.764074 15.000004 11.721205
v 10.568773 15.000004 11.679708
v 13.255838 15.000004 11.671896
v 13.255838 13.950008 11.671904
v 12.552172 13.950008 11.673185
v 12.552057 9.974082 11.646391
v 12.552057 4.699620 11.646391
vt 0.600836 0.455196
vt 0.600661 0.322426
vt 0.606252 0.322419
vt 0.606427 0.455189
vt 0.454455 0.322751
vt 0.460046 0.322744
vt 0.460223 0.455381
vt 0.454632 0.455388
vt 0.264921 0.153693
vt 0.287489 0.153693
vt 0.287489 0.282567
vt 0.264921 0.282567
vt 0.486137 0.455347
vt 0.486144 0.460938
vt 0.460230 0.460972
vt 0.460028 0.309178
vt 0.486475 0.309143
vt 0.486483 0.314734
vt 0.460035 0.314769
vt 0.610170 0.451437
vt 0.609999 0.322424
vt 0.631170 0.322538
vt 0.631340 0.451409
vt 0.486203 0.464685
vt 0.486481 0.485856
vt 0.464009 0.485885
vt 0.463982 0.464714
vt 0.429534 0.322806
vt 0.450705 0.322753
vt 0.450880 0.451647
vt 0.429709 0.451676
vt 0.463744 0.284256
vt 0.486428 0.284226
vt 0.486456 0.305396
vt 0.463772 0.305426
vt 0.486464 0.322687
vt 0.516120 0.322617
vt 0.515899 0.455308
vt 0.515906 0.460899
vt 0.516690 0.464645
vt 0.516718 0.485816
vt 0.234780 0.153693
vt 0.234780 0.282567
vt 0.516452 0.284186
vt 0.516480 0.305357
vt 0.515703 0.309104
vt 0.515711 0.314696
vt 0.526008 0.322594
vt 0.526063 0.455295
vt 0.526070 0.460886
vt 0.526313 0.464632
vt 0.526341 0.485803
vt 0.225157 0.153693
vt 0.225157 0.282567
vt 0.526075 0.284174
vt 0.526103 0.305345
vt 0.525868 0.309091
vt 0.525875 0.314682
vt 0.659255 0.322501
vt 0.659426 0.451371
vt 0.526377 0.513889
vt 0.516754 0.513901
vt 0.486517 0.513941
vt 0.464046 0.513970
vt 0.401449 0.322844
vt 0.401624 0.451714
vt 0.463706 0.256170
vt 0.486178 0.256140
vt 0.526038 0.255945
vt 0.516415 0.255958
vt 0.526005 0.231064
vt 0.516382 0.231077
vt 0.684280 0.322468
vt 0.684450 0.451338
vt 0.526410 0.538913
vt 0.516787 0.538925
vt 0.486550 0.538965
vt 0.464079 0.538995
vt 0.376600 0.451748
vt 0.376424 0.322878
vt 0.463672 0.231146
vt 0.486144 0.231115
vt 0.586353 0.322467
vt 0.586033 0.455216
vt 0.586041 0.460807
vt 0.586060 0.464555
vt 0.586087 0.485725
vt 0.586124 0.513810
vt 0.586157 0.538835
vt 0.165161 0.153693
vt 0.165161 0.282567
vt 0.586247 0.230984
vt 0.586280 0.256009
vt 0.586318 0.284094
vt 0.586345 0.305265
vt 0.586364 0.309012
vt 0.586372 0.314602
vt 0.600843 0.460788
vt 0.597101 0.464540
vt 0.597129 0.485711
vt 0.597165 0.513796
vt 0.597198 0.538820
vt 0.154367 0.282567
vt 0.154367 0.153693
vt 0.596826 0.255995
vt 0.596793 0.230970
vt 0.596864 0.284080
vt 0.596891 0.305251
vt 0.600643 0.308992
vt 0.600650 0.314583
vt 0.701839 0.927331
vt 0.731878 0.927331
vt 0.731878 0.955488
vt 0.701839 0.955488
vt 0.326374 0.366118
vt 0.356609 0.366118
vt 0.356609 0.394201
vt 0.326374 0.394201
vt 0.371436 0.298503
vt 0.371436 0.325202
vt 0.311547 0.325948
vt 0.311547 0.297732
vt 0.937937 0.574289
vt 0.937937 0.549269
vt 0.942111 0.549268
vt 0.942111 0.574289
vt 0.937937 0.520875
vt 0.942111 0.520875
vt 0.937937 0.490689
vt 0.942111 0.490661
vt 0.937937 0.462432
vt 0.942111 0.462417
vt 0.937937 0.437241
vt 0.942111 0.437241
vt 0.935602 0.475531
vt 0.935602 0.505765
vt 0.931343 0.505765
vt 0.931343 0.475531
vt 0.935602 0.533848
vt 0.931343 0.533848
vt 0.935602 0.564081
vt 0.931343 0.564081
vt 0.935602 0.447448
vt 0.931343 0.447448
vt 0.977897 0.444922
vt 0.977897 0.417981
vt 0.982186 0.418661
vt 0.982186 0.444964
vt 0.977897 0.593549
vt 0.977897 0.533277
vt 0.982186 0.533275
vt 0.982186 0.593176
vt 0.977897 0.505020
vt 0.982186 0.505022
vt 0.165161 0.149468
vt 0.154367 0.149468
vt 0.225157 0.149468
vt 0.234780 0.149468
vt 0.287489 0.149501
vt 0.264921 0.149501
vt 0.401443 0.318595
vt 0.376419 0.318629
vt 0.429528 0.318557
vt 0.450699 0.318528
vt 0.454444 0.314777
vt 0.606242 0.314576
vt 0.609993 0.318318
vt 0.631164 0.318289
vt 0.659250 0.318252
vt 0.684274 0.318219
vt 0.731878 0.902378
vt 0.701839 0.902378
vn 0.999990 0.000001 -0.004453
vn 0.999990 0.000001 -0.004452
vn 0.999990 0.000001 -0.004452
vn 0.999990 0.000001 -0.004453
vn -0.999990 0.000000 0.004438
vn -0.999990 0.000000 0.004438
vn -0.999990 0.000000 0.004437
vn -0.999990 0.000000 0.004437
vn 0.000000 -1.000000 0.000000
vn 0.000000 -1.000000 0.000000
vn 0.000000 -1.000000 0.000000
vn 0.000000 -1.000000 0.000000
vn -0.004462 0.000000 -0.999990
vn -0.004462 0.000000 -0.999990
vn -0.004491 0.000000 -0.999990
vn -0.004491 0.000000 -0.999990
vn 0.004430 0.000000 0.999990
vn 0.004465 0.000000 0.999990
vn 0.004465 0.000000 0.999990
vn 0.004430 0.000000 0.999990
vn 0.999990 0.000001 -0.004458
vn 0.999990 0.000001 -0.004458
vn 0.999990 0.000000 -0.004458
vn 0.999990 0.000000 -0.004458
vn -0.004469 -0.000001 -0.999990
vn -0.004463 -0.000001 -0.999990
vn -0.004453 -0.000001 -0.999990
vn -0.004454 -0.000001 -0.999990
vn -0.999990 0.000000 0.004461
vn -0.999990 0.000000 0.004461
vn -0.999990 0.000000 0.004461
vn -0.999990 0.000000 0.004461
vn 0.007137 -0.002175 0.999972
vn 0.006165 -0.001381 0.999980
vn 0.004461 0.000001 0.999990
vn 0.004444 0.000001 0.999990
vn 0.000000 -1.000000 0.000000
vn 0.000000 -1.000000 0.000000
vn 0.000000 -1.000000 0.000000
vn 0.000000 -1.000000 0.000000
vn 0.000000 1.000000 0.000000
vn 0.000000 1.000000 -0.000000
vn 0.000000 1.000000 -0.000000
vn 0.000000 1.000000 0.000000
vn 0.000000 -1.000000 0.000000
vn 0.000000 -1.000000 0.000000
vn 0.000000 -1.000000 0.000000
vn 0.000000 -1.000000 0.000000
vn 0.000000 -1.000000 0.000000
vn 0.000000 -1.000000 0.000000
vn 0.000000 -1.000000 -0.000001
vn 0.000000 -1.000000 -0.000001
vn 0.000000 -1.000000 -0.000001
vn 0.000000 -1.000000 -0.000001
vn 0.000000 1.000000 -0.000000
vn 0.000000 1.000000 -0.000000
vn 0.000000 1.000000 0.000000
vn 0.000000 1.000000 0.000000
vn -0.004441 0.000000 -0.999990
vn -0.004441 0.000000 -0.999990
vn 0.000000 -1.000000 0.000000
vn 0.000000 -1.000000 0.000000
vn -0.004454 -0.000001 -0.999990
vn -0.004435 -0.000001 -0.999990
vn 0.000000 -1.000000 0.000000
vn 0.000000 -1.000000 0.000000
vn 0.004431 0.000001 0.999990
vn 0.004450 0.000001 0.999990
vn 0.000000 -1.000000 0.000000
vn 0.000000 -1.000000 0.000000
vn 0.004477 0.000000 0.999990
vn 0.004477 0.000000 0.999990
vn 0.000000 1.000000 0.000000
vn 0.000000 1.000000 0.000000
vn 0.000000 1.000000 0.000000
vn -0.004474 0.000000 -0.999990
vn -0.004474 0.000000 -0.999990
vn 0.000000 -1.000000 0.000000
vn 0.000000 -1.000000 0.000000
vn -0.004463 0.000004 -0.999990
vn -0.004464 0.000002 -0.999990
vn 0.000000 -1.000000 0.000000
vn 0.000000 -1.000000 0.000000
vn 0.004449 -0.000003 0.999990
vn 0.004463 -0.000003 0.999990
vn 0.000000 -1.000000 0.000002
vn 0.000000 -1.000000 0.000002
vn 0.004451 0.000000 0.999990
vn 0.004451 0.000000 0.999990
vn 0.000000 1.000000 0.000000
vn 0.999990 0.000000 -0.004458
vn 0.999990 0.000000 -0.004458
vn -0.004464 0.000000 -0.999990
vn -0.004438 0.000000 -0.999990
vn -0.004464 0.000000 -0.999990
vn -0.004453 0.000000 -0.999990
vn -0.999990 -0.000000 0.004461
vn -0.999990 -0.000000 0.004461
vn 0.011423 -0.002027 0.999933
vn 0.011418 -0.002031 0.999933
vn 0.004452 0.000000 0.999990
vn 0.004374 0.000000 0.999990
vn 0.004464 0.000000 0.999990
vn 0.004374 0.000000 0.999990
vn 0.999990 0.000000 -0.004458
vn 0.999990 0.000000 -0.004458
vn -0.004464 0.000000 -0.999990
vn -0.004455 0.000000 -0.999990
vn -0.004469 0.000000 -0.999990
vn -0.004453 0.000000 -0.999990
vn -0.999990 -0.000001 0.004461
vn -0.999990 -0.000001 0.004461
vn 0.013956 0.000000 0.999903
vn 0.013956 0.000000 0.999903
vn 0.000000 1.000000 0.000000
vn 0.000000 1.000000 0.000000
vn -0.004467 0.000000 -0.999990
vn -0.004467 0.000000 -0.999990
vn 0.000000 -1.000000 0.000000
vn 0.000000 -1.000000 0.000000
vn -0.004463 0.000005 -0.999990
vn -0.004463 0.000002 -0.999990
vn -0.004463 0.000000 -0.999990
vn -0.004463 0.000000 -0.999990
vn 0.000000 -1.000000 0.000000
vn 0.000000 -1.000000 0.000000
vn 0.004463 0.000000 0.999990
vn 0.004450 0.000000 0.999990
vn 0.004448 -0.000003 0.999990
vn 0.004463 -0.000004 0.999990
vn 0.000000 -1.000000 0.000002
vn 0.000000 -1.000000 0.000002
vn 0.004451 0.000000 0.999990
vn 0.004451 0.000000 0.999990
vn 0.000000 1.000000 0.000000
vn 0.000000 1.000000 0.000000
vn 0.000000 1.000000 0.000000
vn -0.004424 0.000000 -0.999990
vn -0.004424 0.000000 -0.999990
vn -0.004379 0.000002 -0.999990
vn -0.004384 0.000005 -0.999990
vn -0.004374 0.000000 -0.999990
vn -0.004374 0.000000 -0.999991
vn 0.000000 -1.000000 0.000000
vn 0.000000 -1.000000 0.000000
vn 0.004372 0.000000 0.999990
vn 0.004372 0.000000 0.999990
vn 0.004376 -0.000002 0.999990
vn 0.004380 -0.000004 0.999990
vn 0.000000 -1.000000 0.000000
vn 0.000000 -1.000000 0.000000
vn 0.004427 0.000000 0.999990
vn 0.004427 0.000000 0.999990
vn 0.004476 0.000103 0.999990
vn 0.004476 0.000104 0.999990
vn 0.004476 -0.000001 0.999990
vn 0.004476 -0.000001 0.999990
vn -0.004481 0.000000 -0.999990
vn -0.004481 0.000000 -0.999990
vn -0.004481 0.000000 -0.999990
vn -0.004481 0.000000 -0.999990
vn 0.004479 0.000000 0.999990
vn 0.004479 0.000000 0.999990
vn 0.004479 0.000000 0.999990
vn 0.004479 0.000000 0.999990
vn -0.999990 -0.000000 0.004480
vn -0.999990 -0.000000 0.004481
vn -0.999990 -0.000000 0.004481
vn -0.999990 -0.000000 0.004480
vn -0.999990 0.000000 0.004482
vn -0.999990 0.000000 0.004482
vn 0.000000 -1.000000 0.000000
vn 0.000000 -1.000000 0.000000
vn 0.000000 -1.000000 0.000000
vn 0.000000 -1.000000 0.000000
vn 0.999838 -0.003874 0.017555
vn 0.999548 -0.002083 0.029977
vn 0.999548 -0.002078 0.030010
vn 0.999838 -0.003874 0.017555
vn 0.999016 -0.000010 0.044347
vn 0.999016 -0.000010 0.044347
vn -0.000001 1.000000 0.000000
vn -0.000001 1.000000 0.000000
vn -0.000001 1.000000 0.000000
vn -0.000001 1.000000 0.000000
vn 0.999990 0.000000 -0.004473
vn 0.999990 0.000000 -0.004473
vn 0.999990 0.000000 -0.004473
vn 0.999990 0.000000 -0.004473
vn 0.000000 -1.000000 -0.000000
vn 0.000000 -1.000000 -0.000000
vn 0.000000 -1.000000 -0.000000
vn 0.000000 -1.000000 -0.000000
vn -0.999990 0.000000 0.004473
vn -0.999990 0.000000 0.004473
vn -0.999990 0.000000 0.004473
vn -0.999990 0.000000 0.004473
vn -0.995731 0.000000 0.092299
vn -0.995731 0.000000 0.092299
vn -0.995731 0.000000 0.092299
vn -0.995731 0.000000 0.092299
vn -0.005356 -0.996709 0.080888
vn -0.005356 -0.996709 0.080888
vn -0.005356 -0.996709 0.080888
vn -0.005356 -0.996709 0.080888
vn 0.999990 0.000000 -0.004473
vn 0.999990 0.000000 -0.004473
vn 0.999990 0.000000 -0.004473
vn 0.999990 0.000000 -0.004473
vn -0.007717 0.996699 0.080813
vn -0.007717 0.996699 0.080813
vn -0.007717 0.996699 0.080813
vn -0.007717 0.996699 0.080813
vn 0.000000 -1.000000 0.000000
vn 0.000000 -1.000000 0.000000
vn 0.000000 -1.000000 0.000000
vn 0.000000 -1.000000 0.000000
vn 0.000000 -1.000000 0.000000
vn 0.000000 -1.000000 0.000000
vn -0.999990 -0.000000 0.004463
vn -0.999990 -0.000001 0.004460
vn -0.999990 0.000000 0.004464
vn -0.999990 0.000001 0.004463
vn -0.999990 0.000000 0.004442
vn -0.999990 0.000000 0.004442
vn 0.000000 1.000000 0.000000
vn 0.999990 0.000000 -0.004439
vn 0.999990 0.000000 -0.004439
vn 0.999990 0.000000 -0.004457
vn 0.999990 0.000001 -0.004459
vn 0.999990 0.000000 -0.004456
vn 0.999990 0.000000 -0.004456
vn 0.004476 0.000221 0.999990
vn 0.004476 0.000221 0.999990
s 1
g casa_rosa1 Casas_comunidade
usemtl initialShadingGroup
f 11/1/1 100/2/2 101/3/3 10/4/4
s 2
f 94/5/5 95/6/6 14/7/7 15/8/8
s 3
f 78/9/9 90/10/10 4/11/11 20/12/12
s 4
f 17/13/13 18/14/14 15/15/15 14/7/16
s 5
f 16/16/17 23/17/18 24/18/19 13/19/20
s 6
f 6/20/21 102/21/22 103/22/23 34/23/24
s 7
f 19/24/25 36/25/26 37/26/27 7/27/28
s 8
f 92/28/29 93/29/30 7/30/31 37/31/32
s 9
f 38/32/33 39/33/34 22/34/35 8/35/36
s 10
f 10/4/37 101/3/38 102/21/39 6/20/40
s 11
f 14/7/41 95/6/42 96/36/43 17/13/44
s 10
f 94/5/45 15/8/46 7/30/47 93/29/48
f 18/14/49 19/24/50 7/27/47 15/15/46
f 8/35/51 22/34/52 23/17/53 16/16/54
s 11
f 13/19/55 24/18/56 96/36/43 95/6/42
f 17/13/44 96/36/43 97/37/57 25/38/58
s 4
f 25/38/59 26/39/60 18/14/14 17/13/13
s 10
f 26/39/61 27/40/62 19/24/50 18/14/49
s 7
f 27/40/63 35/41/64 36/25/26 19/24/25
s 3
f 73/42/65 78/9/9 20/12/12 28/43/66
s 9
f 22/34/35 39/33/34 40/44/67 30/45/68
s 10
f 23/17/53 22/34/52 30/45/69 31/46/70
s 5
f 24/18/19 23/17/18 31/46/71 32/47/72
s 11
f 96/36/43 24/18/56 32/47/73 97/37/57
f 25/38/58 97/37/57 98/48/74 49/49/75
s 4
f 49/49/76 50/50/77 26/39/60 25/38/59
s 10
f 50/50/78 51/51/79 27/40/62 26/39/61
s 7
f 51/51/80 52/52/81 35/41/64 27/40/63
s 3
f 89/53/82 73/42/65 28/43/66 54/54/83
s 9
f 30/45/68 40/44/67 57/55/84 58/56/85
s 10
f 31/46/70 30/45/69 58/56/86 59/57/87
s 5
f 32/47/72 31/46/71 59/57/88 60/58/89
s 11
f 97/37/57 32/47/73 60/58/90 98/48/74
s 6
f 34/23/24 103/22/23 104/59/91 43/60/92
s 7
f 52/52/81 53/61/93 44/62/94 35/41/64
f 37/26/27 36/25/26 45/63/95 46/64/96
s 8
f 91/65/97 92/28/29 37/31/32 46/66/98
s 9
f 47/67/99 48/68/100 39/33/34 38/32/33
f 56/69/101 57/55/84 40/44/67 41/70/102
f 55/71/103 56/69/101 41/70/102 29/72/104
s 6
f 43/60/92 104/59/91 87/73/105 2/74/106
s 7
f 53/61/93 54/75/107 28/76/108 44/62/94
f 45/63/95 44/62/94 28/76/108 20/77/109
f 46/64/96 45/63/95 20/77/109 4/78/110
s 8
f 4/79/111 90/80/112 91/65/97 46/66/98
s 9
f 3/81/113 21/82/114 48/68/100 47/67/99
s 11
f 49/49/75 98/48/74 99/83/115 61/84/116
s 4
f 61/84/117 62/85/118 50/50/77 49/49/76
s 10
f 62/85/119 63/86/120 51/51/79 50/50/78
s 7
f 63/86/121 64/87/122 52/52/81 51/51/80
f 64/87/122 65/88/123 53/61/93 52/52/81
f 65/88/123 66/89/124 54/75/107 53/61/93
s 3
f 88/90/125 89/53/82 54/54/83 66/91/126
s 9
f 67/92/127 68/93/128 56/69/101 55/71/103
f 58/56/85 57/55/84 69/94/129 70/95/130
s 10
f 59/57/87 58/56/86 70/95/131 71/96/132
s 5
f 60/58/89 59/57/88 71/96/133 72/97/134
s 11
f 98/48/74 60/58/90 72/97/135 99/83/115
f 61/84/116 99/83/115 100/2/136 11/1/137
s 4
f 10/98/138 62/85/118 61/84/117 11/1/139
s 10
f 6/99/40 63/86/120 62/85/119 10/98/37
s 7
f 34/100/140 64/87/122 63/86/121 6/99/141
f 43/101/142 65/88/123 64/87/122 34/100/140
f 2/102/143 66/89/124 65/88/123 43/101/142
s 3
f 2/103/144 87/104/145 88/90/125 66/91/126
s 9
f 42/105/146 68/93/128 67/92/127 1/106/147
f 33/107/148 69/94/129 68/93/128 42/105/146
f 70/95/130 69/94/129 33/107/148 5/108/149
s 10
f 71/96/132 70/95/131 5/108/150 9/109/151
s 5
f 72/97/134 71/96/133 9/109/152 12/110/153
s 14
f 77/111/154 74/112/155 75/113/156 76/114/157
s off
f 79/115/158 80/116/159 81/117/160 82/118/161
f 83/119/162 84/120/163 85/121/164 86/122/165
s 15
f 29/123/166 41/124/167 74/125/168 73/126/169
f 41/124/167 40/127/170 75/128/171 74/125/168
s off
f 40/127/172 39/129/173 76/130/174 75/128/175
s 16
f 39/129/176 48/131/177 77/132/178 76/130/179
f 48/131/177 21/133/180 78/134/181 77/132/178
s off
f 44/135/182 45/136/183 80/137/184 79/138/185
f 45/136/186 36/139/187 81/140/188 80/137/189
f 36/139/190 35/141/191 82/142/192 81/140/193
f 35/143/194 44/135/195 79/138/196 82/144/197
f 68/145/198 69/146/199 84/147/200 83/148/201
f 69/149/202 57/150/203 85/151/204 84/152/205
f 57/150/206 56/153/207 86/154/208 85/151/209
f 56/153/210 68/145/211 83/148/212 86/154/213
s 3
f 67/155/214 88/90/125 87/104/145 1/156/215
f 55/157/216 89/53/82 88/90/125 67/155/214
f 29/158/217 73/42/65 89/53/82 55/157/216
f 3/159/218 90/10/10 78/9/9 21/160/219
s 8
f 47/161/220 91/65/97 90/80/112 3/162/221
f 38/163/222 92/28/29 91/65/97 47/161/220
f 8/164/223 93/29/30 92/28/29 38/163/222
s 10
f 94/5/45 93/29/48 8/164/51 16/165/54
s 2
f 13/19/224 95/6/6 94/5/5 16/165/225
s 11
f 12/110/226 100/2/136 99/83/115 72/97/135
s 1
f 9/166/227 101/3/3 100/2/2 12/110/228
s 10
f 5/167/150 102/21/39 101/3/38 9/166/151
s 6
f 33/168/229 103/22/23 102/21/22 5/167/230
f 42/169/231 104/59/91 103/22/23 33/168/229
f 1/170/232 87/73/105 104/59/91 42/169/231
s 14
f 73/171/233 74/112/155 77/111/154 78/172/234
