# This file uses centimeters as units for non-parametric coordinates.

mtllib S_sacada_amarela.mtl
g default
v 12.507172 1.050003 6.296858
v -12.492626 1.050003 6.325819
v 13.211746 1.050003 6.999754
v -13.196003 1.050003 7.029982
v -13.196003 0.000000 7.029982
v 13.211746 0.000000 6.999754
v -12.507973 0.000000 -7.025270
v -13.211750 0.000000 -7.025148
v -13.211750 1.050003 -7.025148
v -12.507973 1.050003 -7.025270
v 12.492020 1.050003 -7.029741
v 13.195992 1.050003 -7.029726
v 13.195992 0.000000 -7.029726
v 12.507172 4.993134 6.296858
v -12.492626 4.993134 6.325819
v 12.492020 4.993118 -7.029741
v -12.507973 4.993134 -7.025270
v 11.840759 1.050003 5.671553
v -11.754467 1.050003 -7.025728
v 11.758217 1.050003 -7.029985
v -11.966305 1.050003 5.713194
v 11.837967 4.993126 5.629271
v -11.825348 4.993134 5.656614
v 11.730324 4.993118 -7.029573
v -11.805859 4.993134 -7.025637
vt 0.979439 0.935483
vt 0.979384 0.956480
vt 0.852617 0.956062
vt 0.853438 0.935066
vt 0.985633 0.644076
vt 0.985983 0.665084
vt 0.918146 0.665201
vt 0.918107 0.644204
vt 0.914732 0.644365
vt 0.914609 0.665361
vt 0.846976 0.664960
vt 0.847326 0.643965
vt 0.986858 0.901614
vt 0.986839 0.907205
vt 0.846225 0.906741
vt 0.846243 0.901150
vt 0.983079 0.910940
vt 0.849962 0.910499
vt 0.735750 0.005575
vt 0.872618 0.005627
vt 0.872661 0.080330
vt 0.732046 0.080414
vt 0.732003 0.005574
vt 0.918123 0.615724
vt 0.918128 0.610133
vt 0.992963 0.610189
vt 0.992959 0.615780
vt 0.918124 0.619471
vt 0.989211 0.619527
vt 0.914683 0.615564
vt 0.914692 0.619313
vt 0.843732 0.619415
vt 0.839979 0.615673
vt 0.914675 0.609973
vt 0.839971 0.610082
vt 0.918108 0.640466
vt 0.989195 0.640522
vt 0.843762 0.640411
vt 0.914723 0.640309
vt 0.849892 0.931495
vt 0.983010 0.931936
vt 0.721249 0.076928
vt 0.594482 0.076693
vt 0.594929 0.009060
vt 0.720128 0.009096
vn -0.001453 -0.012510 -0.999921
vn -0.001453 -0.012510 -0.999921
vn -0.001453 -0.012510 -0.999921
vn -0.001453 -0.012510 -0.999921
vn 0.999895 -0.011290 0.009099
vn 0.999895 -0.011290 0.009099
vn 0.999895 -0.011290 0.009099
vn 0.999895 -0.011290 0.009099
vn -0.999964 -0.003851 0.007499
vn -0.999965 -0.003851 0.007499
vn -0.999965 -0.003851 0.007499
vn -0.999965 -0.003851 0.007499
vn 0.001145 0.000000 0.999999
vn 0.001145 0.000000 0.999999
vn 0.001145 0.000000 0.999999
vn 0.001145 0.000000 0.999999
vn 0.000000 1.000000 -0.000000
vn 0.000000 1.000000 -0.000000
vn 0.000000 1.000000 -0.000000
vn 0.000000 1.000000 -0.000000
vn 0.000000 -1.000000 0.000000
vn 0.000000 -1.000000 0.000000
vn 0.000000 -1.000000 0.000000
vn 0.000000 -1.000000 0.000000
vn 0.000000 -1.000000 0.000000
vn -0.999999 0.000000 0.001120
vn -0.999999 0.000000 0.001120
vn -0.999999 0.000000 0.001120
vn -0.999999 0.000000 0.001120
vn 0.000000 1.000000 0.000000
vn 0.000000 1.000000 0.000000
vn 0.000000 1.000000 -0.000000
vn 0.000000 1.000000 -0.000000
vn 0.999999 0.000000 -0.001123
vn 0.999999 0.000000 -0.001123
vn 0.999999 0.000000 -0.001123
vn 0.999999 0.000000 -0.001123
vn -0.999999 0.000000 0.001149
vn -0.999999 0.000000 0.001149
vn -0.999999 0.000000 0.001149
vn -0.999999 0.000000 0.001149
vn 0.999999 0.000000 -0.001137
vn 0.999999 0.000000 -0.001137
vn 0.999999 0.000000 -0.001137
vn 0.999999 0.000000 -0.001137
vn 0.001158 0.000000 0.999999
vn 0.001158 0.000000 0.999999
vn 0.001158 0.000000 0.999999
vn 0.001158 0.000000 0.999999
vn 0.000000 1.000000 -0.000004
vn 0.000000 1.000000 0.000000
vn 0.000000 1.000000 0.000000
vn 0.000000 1.000000 -0.000004
vn -0.000005 1.000000 -0.000001
vn -0.000002 1.000000 -0.000004
vn -0.000002 1.000000 -0.000004
vn -0.000005 1.000000 -0.000001
vn 0.000000 1.000000 0.000000
vn 0.000000 1.000000 0.000000
vn 0.000000 1.000000 0.000000
vn 0.000000 1.000000 0.000000
s off
g sacada3 Casas_comunidade
usemtl initialShadingGroup
f 22/1/1 18/2/2 21/3/3 23/4/4
f 23/5/5 21/6/6 19/7/7 25/8/8
f 24/9/9 20/10/10 18/11/11 22/12/12
f 6/13/13 3/14/14 4/15/15 5/16/16
s 1
f 4/15/17 3/14/18 1/17/19 2/18/20
s off
f 7/19/21 13/20/22 6/21/23 5/22/24 8/23/25
f 9/24/26 8/25/27 5/26/28 4/27/29
s 1
f 10/28/30 9/24/31 4/27/17 2/29/20
f 12/30/32 11/31/33 1/32/19 3/33/18
s off
f 13/34/34 12/30/35 3/33/36 6/35/37
f 17/36/38 10/28/39 2/29/40 15/37/41
f 14/38/42 1/32/43 11/31/44 16/39/45
f 15/40/46 2/18/47 1/17/48 14/41/49
s 2
f 23/5/50 25/8/51 17/36/52 15/37/53
f 24/9/54 22/12/55 14/38/56 16/39/57
f 22/1/55 23/4/50 15/40/53 14/41/56
s off
f 21/42/58 18/43/59 20/44/60 19/45/61
