# This file uses centimeters as units for non-parametric coordinates.

mtllib S_sacada_laranja.mtl
g default
v 12.507174 1.050003 6.296858
v -12.492624 1.050003 6.325819
v 13.211748 1.050003 6.999754
v -13.196001 1.050003 7.029982
v -13.196001 0.000000 7.029982
v 13.211748 0.000000 6.999754
v -12.507971 0.000000 -7.025270
v -13.211748 0.000000 -7.025148
v -13.211748 1.050003 -7.025148
v -12.507971 1.050003 -7.025270
v 12.492022 1.050003 -7.029741
v 13.195993 1.050003 -7.029726
v 13.195993 0.000000 -7.029726
v 12.507174 4.993134 6.296858
v -12.492624 4.993134 6.325819
v 12.492022 4.993118 -7.029741
v -12.507971 4.993134 -7.025270
v 11.840761 1.050003 5.671553
v -11.754465 1.050003 -7.025728
v 11.758219 1.050003 -7.029985
v -11.966303 1.050003 5.713194
v 11.837969 4.993126 5.629271
v -11.825346 4.993134 5.656614
v 11.730326 4.993118 -7.029573
v -11.805857 4.993134 -7.025637
vt 0.979507 0.876978
vt 0.979453 0.897975
vt 0.852686 0.897557
vt 0.853507 0.876561
vt 0.985776 0.703123
vt 0.986126 0.724131
vt 0.918289 0.724248
vt 0.918250 0.703251
vt 0.914876 0.703412
vt 0.914752 0.724408
vt 0.847119 0.724007
vt 0.847469 0.703012
vt 0.986926 0.843109
vt 0.986908 0.848700
vt 0.846294 0.848236
vt 0.846312 0.842645
vt 0.983148 0.852435
vt 0.850031 0.851994
vt 0.591284 0.087326
vt 0.728151 0.087377
vt 0.728194 0.162081
vt 0.587579 0.162165
vt 0.587537 0.087324
vt 0.918266 0.674771
vt 0.918271 0.669180
vt 0.993106 0.669237
vt 0.993102 0.674827
vt 0.918267 0.678518
vt 0.989354 0.678574
vt 0.914826 0.674611
vt 0.914836 0.678360
vt 0.843875 0.678462
vt 0.840122 0.674720
vt 0.914818 0.669020
vt 0.840114 0.669129
vt 0.918251 0.699513
vt 0.989338 0.699569
vt 0.843905 0.699458
vt 0.914866 0.699356
vt 0.849961 0.872990
vt 0.983078 0.873431
vt 0.577693 0.158678
vt 0.450926 0.158444
vt 0.451372 0.090811
vt 0.576572 0.090846
vn -0.001453 -0.012510 -0.999921
vn -0.001453 -0.012510 -0.999921
vn -0.001453 -0.012510 -0.999921
vn -0.001453 -0.012510 -0.999921
vn 0.999895 -0.011290 0.009099
vn 0.999895 -0.011290 0.009099
vn 0.999895 -0.011290 0.009099
vn 0.999895 -0.011290 0.009099
vn -0.999964 -0.003851 0.007499
vn -0.999965 -0.003851 0.007499
vn -0.999965 -0.003851 0.007499
vn -0.999965 -0.003851 0.007499
vn 0.001145 0.000000 0.999999
vn 0.001145 0.000000 0.999999
vn 0.001145 0.000000 0.999999
vn 0.001145 0.000000 0.999999
vn 0.000000 1.000000 -0.000000
vn 0.000000 1.000000 -0.000000
vn 0.000000 1.000000 -0.000000
vn 0.000000 1.000000 -0.000000
vn 0.000000 -1.000000 0.000000
vn 0.000000 -1.000000 0.000000
vn 0.000000 -1.000000 0.000000
vn 0.000000 -1.000000 0.000000
vn 0.000000 -1.000000 0.000000
vn -0.999999 0.000000 0.001120
vn -0.999999 0.000000 0.001120
vn -0.999999 0.000000 0.001120
vn -0.999999 0.000000 0.001120
vn 0.000000 1.000000 0.000000
vn 0.000000 1.000000 0.000000
vn 0.000000 1.000000 -0.000000
vn 0.000000 1.000000 -0.000000
vn 0.999999 0.000000 -0.001123
vn 0.999999 0.000000 -0.001123
vn 0.999999 0.000000 -0.001123
vn 0.999999 0.000000 -0.001123
vn -0.999999 0.000000 0.001149
vn -0.999999 0.000000 0.001149
vn -0.999999 0.000000 0.001149
vn -0.999999 0.000000 0.001149
vn 0.999999 0.000000 -0.001137
vn 0.999999 0.000000 -0.001137
vn 0.999999 0.000000 -0.001137
vn 0.999999 0.000000 -0.001137
vn 0.001158 0.000000 0.999999
vn 0.001158 0.000000 0.999999
vn 0.001158 0.000000 0.999999
vn 0.001158 0.000000 0.999999
vn 0.000000 1.000000 -0.000004
vn 0.000000 1.000000 0.000000
vn 0.000000 1.000000 0.000000
vn 0.000000 1.000000 -0.000004
vn -0.000005 1.000000 -0.000001
vn -0.000002 1.000000 -0.000004
vn -0.000002 1.000000 -0.000004
vn -0.000005 1.000000 -0.000001
vn 0.000000 1.000000 0.000000
vn 0.000000 1.000000 0.000000
vn 0.000000 1.000000 0.000000
vn 0.000000 1.000000 0.000000
s off
g sacada2 Casas_comunidade
usemtl initialShadingGroup
f 22/1/1 18/2/2 21/3/3 23/4/4
f 23/5/5 21/6/6 19/7/7 25/8/8
f 24/9/9 20/10/10 18/11/11 22/12/12
f 6/13/13 3/14/14 4/15/15 5/16/16
s 1
f 4/15/17 3/14/18 1/17/19 2/18/20
s off
f 7/19/21 13/20/22 6/21/23 5/22/24 8/23/25
f 9/24/26 8/25/27 5/26/28 4/27/29
s 1
f 10/28/30 9/24/31 4/27/17 2/29/20
f 12/30/32 11/31/33 1/32/19 3/33/18
s off
f 13/34/34 12/30/35 3/33/36 6/35/37
f 17/36/38 10/28/39 2/29/40 15/37/41
f 14/38/42 1/32/43 11/31/44 16/39/45
f 15/40/46 2/18/47 1/17/48 14/41/49
s 2
f 23/5/50 25/8/51 17/36/52 15/37/53
f 24/9/54 22/12/55 14/38/56 16/39/57
f 22/1/55 23/4/50 15/40/53 14/41/56
s off
f 21/42/58 18/43/59 20/44/60 19/45/61
