# This file uses centimeters as units for non-parametric coordinates.

mtllib S_sacada_vermelha.mtl
g default
v 12.507179 1.050003 6.296858
v -12.492626 1.050003 6.325819
v 13.211754 1.050003 6.999769
v -13.195995 1.050003 7.029982
v -13.195995 0.000000 7.029982
v 13.211754 0.000000 6.999769
v -12.507973 0.000000 -7.025270
v -13.211750 0.000000 -7.025148
v -13.211750 1.050003 -7.025148
v -12.507973 1.050003 -7.025270
v 12.492020 1.050003 -7.029741
v 13.195984 1.050003 -7.029726
v 13.195984 0.000000 -7.029726
v 12.507179 4.993134 6.296858
v -12.492626 4.993134 6.325819
v 12.492020 4.993118 -7.029741
v -12.507973 4.993134 -7.025270
v 11.840767 1.050003 5.671553
v -11.754467 1.050003 -7.025728
v 11.758217 1.050003 -7.029985
v -11.966312 1.050003 5.713194
v 11.837967 4.993126 5.629271
v -11.825348 4.993134 5.656614
v 11.730331 4.993118 -7.029573
v -11.805859 4.993134 -7.025621
vt 0.979507 0.818969
vt 0.979453 0.839966
vt 0.852686 0.839548
vt 0.853507 0.818552
vt 0.985489 0.761131
vt 0.985839 0.782139
vt 0.918002 0.782257
vt 0.917963 0.761260
vt 0.915163 0.761420
vt 0.915039 0.782416
vt 0.847406 0.782015
vt 0.847756 0.761021
vt 0.986926 0.785100
vt 0.986908 0.790691
vt 0.846294 0.790228
vt 0.846312 0.784637
vt 0.983148 0.794426
vt 0.850031 0.793985
vt 0.447728 0.005575
vt 0.584595 0.005627
vt 0.584638 0.080330
vt 0.444023 0.080414
vt 0.443980 0.005574
vt 0.917979 0.732779
vt 0.917984 0.727189
vt 0.992819 0.727245
vt 0.992815 0.732836
vt 0.917980 0.736527
vt 0.989067 0.736582
vt 0.915113 0.732620
vt 0.915123 0.736368
vt 0.844162 0.736470
vt 0.840410 0.732728
vt 0.915105 0.727029
vt 0.840402 0.727138
vt 0.917963 0.757522
vt 0.989051 0.757577
vt 0.844192 0.757467
vt 0.915153 0.757364
vt 0.849961 0.814981
vt 0.983078 0.815422
vt 0.865715 0.158678
vt 0.738948 0.158444
vt 0.739395 0.090811
vt 0.864594 0.090846
vn -0.001453 -0.012510 -0.999921
vn -0.001453 -0.012510 -0.999921
vn -0.001453 -0.012510 -0.999921
vn -0.001453 -0.012510 -0.999921
vn 0.999895 -0.011292 0.009099
vn 0.999895 -0.011292 0.009099
vn 0.999895 -0.011292 0.009099
vn 0.999895 -0.011292 0.009099
vn -0.999964 -0.003851 0.007499
vn -0.999965 -0.003851 0.007499
vn -0.999965 -0.003851 0.007499
vn -0.999965 -0.003851 0.007499
vn 0.001144 0.000000 0.999999
vn 0.001144 0.000000 0.999999
vn 0.001144 0.000000 0.999999
vn 0.001144 0.000000 0.999999
vn 0.000000 1.000000 -0.000000
vn 0.000000 1.000000 -0.000000
vn 0.000000 1.000000 -0.000000
vn 0.000000 1.000000 -0.000000
vn 0.000000 -1.000000 0.000000
vn 0.000000 -1.000000 0.000000
vn 0.000000 -1.000000 0.000000
vn 0.000000 -1.000000 0.000000
vn 0.000000 -1.000000 0.000000
vn -0.999999 0.000000 0.001121
vn -0.999999 0.000000 0.001121
vn -0.999999 0.000000 0.001121
vn -0.999999 0.000000 0.001121
vn 0.000000 1.000000 -0.000000
vn 0.000000 1.000000 -0.000000
vn 0.000000 1.000000 -0.000000
vn 0.000000 1.000000 -0.000000
vn 0.999999 0.000000 -0.001124
vn 0.999999 0.000000 -0.001124
vn 0.999999 0.000000 -0.001124
vn 0.999999 0.000000 -0.001124
vn -0.999999 0.000000 0.001149
vn -0.999999 0.000000 0.001149
vn -0.999999 0.000000 0.001149
vn -0.999999 0.000000 0.001149
vn 0.999999 0.000000 -0.001138
vn 0.999999 0.000000 -0.001138
vn 0.999999 0.000000 -0.001138
vn 0.999999 0.000000 -0.001138
vn 0.001158 0.000000 0.999999
vn 0.001158 0.000000 0.999999
vn 0.001158 0.000000 0.999999
vn 0.001158 0.000000 0.999999
vn 0.000000 1.000000 -0.000004
vn 0.000000 1.000000 0.000000
vn 0.000000 1.000000 0.000000
vn 0.000000 1.000000 -0.000004
vn -0.000005 1.000000 -0.000001
vn -0.000002 1.000000 -0.000004
vn -0.000002 1.000000 -0.000004
vn -0.000005 1.000000 -0.000001
vn 0.000000 1.000000 0.000000
vn 0.000000 1.000000 0.000000
vn 0.000000 1.000000 0.000000
vn 0.000000 1.000000 0.000000
s off
g sacada1 Casas_comunidade
usemtl initialShadingGroup
f 22/1/1 18/2/2 21/3/3 23/4/4
f 23/5/5 21/6/6 19/7/7 25/8/8
f 24/9/9 20/10/10 18/11/11 22/12/12
f 6/13/13 3/14/14 4/15/15 5/16/16
s 1
f 4/15/17 3/14/18 1/17/19 2/18/20
s off
f 7/19/21 13/20/22 6/21/23 5/22/24 8/23/25
f 9/24/26 8/25/27 5/26/28 4/27/29
s 1
f 10/28/30 9/24/31 4/27/17 2/29/20
f 12/30/32 11/31/33 1/32/19 3/33/18
s off
f 13/34/34 12/30/35 3/33/36 6/35/37
f 17/36/38 10/28/39 2/29/40 15/37/41
f 14/38/42 1/32/43 11/31/44 16/39/45
f 15/40/46 2/18/47 1/17/48 14/41/49
s 2
f 23/5/50 25/8/51 17/36/52 15/37/53
f 24/9/54 22/12/55 14/38/56 16/39/57
f 22/1/55 23/4/50 15/40/53 14/41/56
s off
f 21/42/58 18/43/59 20/44/60 19/45/61
