# This file is brought to you by Roblox Corporation
# Generated by Roblox Studio

mtllib Ball.mtl

g Meshesvolleyballball1

v -0.285269 0.667649 0.285269 
v -0.4451 0.445099 0.4451 
v -0.264025 0.523497 0.523498 
v 2.38419e-07 0.716206 0.306512 
v 0.264024 0.523497 0.523498 
v 0.285268 0.667649 0.285268 
v -7.15256e-07 0.562191 0.562191 
v 0.445099 0.4451 0.4451 
v -7.15256e-07 0.306512 0.716206 
v -0.285269 0.285268 0.66765 
v -0.523498 0.264025 0.523498 
v 0.285268 0.285268 0.66765 
v 0.523497 0.264025 0.523498 
v 2.38419e-07 -2.38419e-07 0.767797 
v -0.306513 -5.0173e-17 0.716206 
v -0.562191 5.83957e-23 0.562191 
v -0.523498 -0.264025 0.523498 
v 0.306512 -2.38419e-07 0.716205 
v 0.562191 -1.37697e-16 0.562191 
v 0.523497 -0.264025 0.523498 
v -0.285269 -0.285268 0.66765 
v -0.4451 -0.4451 0.4451 
v -0.264025 -0.523498 0.523498 
v 0.285268 -0.285268 0.66765 
v 0.445099 -0.4451 0.4451 
v 0.264024 -0.523498 0.523498 
v 2.38419e-07 -0.306512 0.716205 
v -7.15256e-07 -0.562191 0.562191 
v 0.285268 -0.285268 -0.667649 
v 0.523498 -0.264025 -0.523498 
v 0.445099 -0.4451 -0.445099 
v 0.66765 -0.285268 -0.285268 
v 0.523497 -0.523498 -0.264025 
v 0.716206 -0.306512 -3.75369e-17 
v 0.562191 -0.562191 -6.88486e-17 
v 0.523497 -0.523498 0.264025 
v 0.66765 -0.285268 0.285269 
v 0.445099 -0.4451 0.4451 
v 0.523497 -0.264025 0.523498 
v 0.767797 -9.4028e-17 0 
v 0.716205 -1.25247e-16 0.306512 
v 0.562191 -1.37697e-16 0.562191 
v 0.523497 0.264025 0.523498 
v 0.66765 0.285268 0.285269 
v 0.445099 0.4451 0.4451 
v 0.523497 0.523497 0.264025 
v 0.716205 0.306512 3.75369e-17 
v 0.562191 0.562191 6.88485e-17 
v 0.523497 0.523497 -0.264025 
v 0.66765 0.285268 -0.285268 
v 0.445099 0.4451 -0.445099 
v 0.716206 -2.38419e-07 -0.306512 
v 0.523497 0.264025 -0.523498 
v 0.562189 2.33583e-22 -0.562191 
v 0.306512 5.01731e-17 -0.716206 
v 0.285268 0.285268 -0.667649 
v 2.38419e-07 -2.38419e-07 -0.767797 
v 0.264024 0.523497 -0.523498 
v 2.38419e-07 0.306512 -0.716206 
v 0.285268 0.667649 -0.285268 
v 0.523497 0.523497 -0.264025 
v -7.15256e-07 0.562191 -0.562191 
v 0.306512 0.716205 8.77098e-17 
v 0.562191 0.562191 6.88485e-17 
v 0.523497 0.523497 0.264025 
v -7.15256e-07 0.716206 -0.306512 
v 2.38419e-07 0.767797 9.4028e-17 
v -0.264025 0.523497 -0.523498 
v -0.285269 0.667649 -0.285268 
v -0.285269 0.285268 -0.667649 
v -0.4451 0.4451 -0.445099 
v -0.523498 0.523497 -0.264025 
v -0.306513 0.716206 8.77099e-17 
v -0.562191 0.562191 6.88485e-17 
v -0.523498 0.523497 0.264025 
v 0.264024 -0.523498 -0.523498 
v 0.285268 -0.66765 -0.285268 
v 0.523497 -0.523498 -0.264025 
v -7.15256e-07 -0.306512 -0.716206 
v -7.15256e-07 -0.562191 -0.562191 
v 2.38419e-07 -0.716205 -0.306512 
v 0.306512 -0.716205 -8.77098e-17 
v 0.562191 -0.562191 -6.88486e-17 
v 0.523497 -0.523498 0.264025 
v -0.264025 -0.523498 -0.523498 
v 2.38419e-07 -0.767797 -9.4028e-17 
v 0.285268 -0.66765 0.285269 
v 0.445099 -0.4451 0.4451 
v 0.264024 -0.523498 0.523498 
v -7.15256e-07 -0.716205 0.306512 
v -7.15256e-07 -0.562191 0.562191 
v -0.264025 -0.523498 0.523498 
v -0.285269 -0.66765 0.285268 
v -0.4451 -0.4451 0.4451 
v -0.523498 -0.523498 0.264025 
v -0.306513 -0.716205 -8.77098e-17 
v -0.562191 -0.562191 -6.88486e-17 
v -0.523498 -0.523498 -0.264025 
v -0.285269 -0.66765 -0.285268 
v -0.4451 -0.4451 -0.445099 
v -0.285269 -0.285268 -0.667649 
v -0.306513 -2.38419e-07 -0.716206 
v -0.523498 -0.264025 -0.523498 
v -0.523498 0.264025 -0.523498 
v -0.562191 -2.38419e-07 -0.562191 
v -0.716206 1.25247e-16 -0.306512 
v -0.66765 -0.285268 -0.285268 
v -0.523498 -0.523498 -0.264025 
v -0.66765 0.285268 -0.285268 
v -0.523498 0.523497 -0.264025 
v -0.716206 -0.306512 -3.75369e-17 
v -0.562191 -0.562191 -6.88486e-17 
v -0.523498 -0.523498 0.264025 
v -0.767797 -2.38419e-07 -2.91979e-23 
v -0.716206 0.306512 3.75369e-17 
v -0.562191 0.562191 6.88485e-17 
v -0.523498 0.523497 0.264025 
v -0.66765 -0.285268 0.285268 
v -0.4451 -0.4451 0.4451 
v -0.523498 -0.264025 0.523498 
v -0.66765 0.285268 0.285268 
v -0.4451 0.445099 0.4451 
v -0.523498 0.264025 0.523498 
v -0.716206 -2.38419e-07 0.306512 
v -0.562191 5.83957e-23 0.562191 

vn -0.330709 0.88189 0.330709 
vn -0.574803 0.574803 0.574803 
vn -0.314961 0.669291 0.669291 
vn 0 0.937008 0.346457 
vn 0.314961 0.669291 0.669291 
vn 0.330709 0.88189 0.330709 
vn 0 0.708661 0.708661 
vn 0.574803 0.574803 0.574803 
vn 0 0.346457 0.937008 
vn -0.330709 0.330709 0.88189 
vn -0.669291 0.314961 0.669291 
vn 0.330709 0.330709 0.88189 
vn 0.669291 0.314961 0.669291 
vn 0 0 1 
vn -0.346457 0 0.937008 
vn -0.708661 0 0.708661 
vn -0.669291 -0.314961 0.669291 
vn 0.346457 0 0.937008 
vn 0.708661 0 0.708661 
vn 0.669291 -0.314961 0.669291 
vn -0.330709 -0.330709 0.88189 
vn -0.574803 -0.574803 0.574803 
vn -0.314961 -0.669291 0.669291 
vn 0.330709 -0.330709 0.88189 
vn 0.574803 -0.574803 0.574803 
vn 0.314961 -0.669291 0.669291 
vn 0 -0.346457 0.937008 
vn 0 -0.708661 0.708661 
vn 0.330709 -0.330709 -0.88189 
vn 0.669291 -0.314961 -0.669291 
vn 0.574803 -0.574803 -0.574803 
vn 0.88189 -0.330709 -0.330709 
vn 0.669291 -0.669291 -0.314961 
vn 0.937008 -0.346457 0 
vn 0.708661 -0.708661 0 
vn 0.669291 -0.669291 0.314961 
vn 0.88189 -0.330709 0.330709 
vn 0.574803 -0.574803 0.574803 
vn 0.669291 -0.314961 0.669291 
vn 1 0 0 
vn 0.937008 0 0.346457 
vn 0.708661 0 0.708661 
vn 0.669291 0.314961 0.669291 
vn 0.88189 0.330709 0.330709 
vn 0.574803 0.574803 0.574803 
vn 0.669291 0.669291 0.314961 
vn 0.937008 0.346457 0 
vn 0.708661 0.708661 0 
vn 0.669291 0.669291 -0.314961 
vn 0.88189 0.330709 -0.330709 
vn 0.574803 0.574803 -0.574803 
vn 0.937008 0 -0.346457 
vn 0.669291 0.314961 -0.669291 
vn 0.708661 0 -0.708661 
vn 0.346457 0 -0.937008 
vn 0.330709 0.330709 -0.88189 
vn 0 0 -1 
vn 0.314961 0.669291 -0.669291 
vn 0 0.346457 -0.937008 
vn 0.330709 0.88189 -0.330709 
vn 0.669291 0.669291 -0.314961 
vn 0 0.708661 -0.708661 
vn 0.346457 0.937008 0 
vn 0.708661 0.708661 0 
vn 0.669291 0.669291 0.314961 
vn 0 0.937008 -0.346457 
vn 0 1 0 
vn -0.314961 0.669291 -0.669291 
vn -0.330709 0.88189 -0.330709 
vn -0.330709 0.330709 -0.88189 
vn -0.574803 0.574803 -0.574803 
vn -0.669291 0.669291 -0.314961 
vn -0.346457 0.937008 0 
vn -0.708661 0.708661 0 
vn -0.669291 0.669291 0.314961 
vn 0.314961 -0.669291 -0.669291 
vn 0.330709 -0.88189 -0.330709 
vn 0.669291 -0.669291 -0.314961 
vn 0 -0.346457 -0.937008 
vn 0 -0.708661 -0.708661 
vn 0 -0.937008 -0.346457 
vn 0.346457 -0.937008 0 
vn 0.708661 -0.708661 0 
vn 0.669291 -0.669291 0.314961 
vn -0.314961 -0.669291 -0.669291 
vn 0 -1 0 
vn 0.330709 -0.88189 0.330709 
vn 0.574803 -0.574803 0.574803 
vn 0.314961 -0.669291 0.669291 
vn 0 -0.937008 0.346457 
vn 0 -0.708661 0.708661 
vn -0.314961 -0.669291 0.669291 
vn -0.330709 -0.88189 0.330709 
vn -0.574803 -0.574803 0.574803 
vn -0.669291 -0.669291 0.314961 
vn -0.346457 -0.937008 0 
vn -0.708661 -0.708661 0 
vn -0.669291 -0.669291 -0.314961 
vn -0.330709 -0.88189 -0.330709 
vn -0.574803 -0.574803 -0.574803 
vn -0.330709 -0.330709 -0.88189 
vn -0.346457 0 -0.937008 
vn -0.669291 -0.314961 -0.669291 
vn -0.669291 0.314961 -0.669291 
vn -0.708661 0 -0.708661 
vn -0.937008 0 -0.346457 
vn -0.88189 -0.330709 -0.330709 
vn -0.669291 -0.669291 -0.314961 
vn -0.88189 0.330709 -0.330709 
vn -0.669291 0.669291 -0.314961 
vn -0.937008 -0.346457 0 
vn -0.708661 -0.708661 0 
vn -0.669291 -0.669291 0.314961 
vn -1 0 0 
vn -0.937008 0.346457 0 
vn -0.708661 0.708661 0 
vn -0.669291 0.669291 0.314961 
vn -0.88189 -0.330709 0.330709 
vn -0.574803 -0.574803 0.574803 
vn -0.669291 -0.314961 0.669291 
vn -0.88189 0.330709 0.330709 
vn -0.574803 0.574803 0.574803 
vn -0.669291 0.314961 0.669291 
vn -0.937008 0 0.346457 
vn -0.708661 0 0.708661 

vt -0.564157 0.321172 
vt -0.607694 0.262611 
vt -0.559228 0.26184 
vt -0.499408 0.320742 
vt -0.439358 0.262077 
vt -0.434659 0.321428 
vt -0.499291 0.261588 
vt -0.390895 0.263038 
vt -0.499174 0.201847 
vt -0.562989 0.202536 
vt -0.624304 0.210456 
vt -0.435362 0.202787 
vt -0.374079 0.21095 
vt -0.499047 0.137471 
vt -0.567333 0.139941 
vt -0.631657 0.14399 
vt -0.62651 0.0782602 
vt -0.430772 0.140209 
vt -0.366462 0.144513 
vt -0.371352 0.078764 
vt -0.563853 0.0765564 
vt -0.613591 0.0290555 
vt -0.564528 0.0146835 
vt -0.434002 0.0768126 
vt -0.384077 0.0295094 
vt -0.433082 0.0149431 
vt -0.498916 0.0721054 
vt -0.498792 0.00826788 
vt -0.439055 0.682701 
vt -0.382035 0.682855 
vt -0.387394 0.734376 
vt -0.323825 0.687096 
vt -0.333898 0.749208 
vt -0.261454 0.691122 
vt -0.266666 0.755824 
vt -0.200441 0.750459 
vt -0.198052 0.687417 
vt -0.150986 0.737507 
vt -0.136192 0.688143 
vt -0.258166 0.621719 
vt -0.193199 0.621693 
vt -0.129489 0.62167 
vt -0.13618 0.555202 
vt -0.198019 0.555971 
vt -0.150978 0.505846 
vt -0.200408 0.492928 
vt -0.261358 0.552312 
vt -0.26654 0.487606 
vt -0.33355 0.494251 
vt -0.323605 0.556386 
vt -0.386563 0.509064 
vt -0.321886 0.621751 
vt -0.381656 0.560711 
vt -0.38055 0.621796 
vt -0.437598 0.621869 
vt -0.438668 0.561068 
vt -0.500003 0.621853 
vt -0.438255 0.504383 
vt -0.499879 0.559856 
vt -0.433648 0.446391 
vt -0.371132 0.45457 
vt -0.499769 0.503215 
vt -0.429644 0.384067 
vt -0.365214 0.385383 
vt -0.372717 0.316453 
vt -0.499654 0.445296 
vt -0.499532 0.383183 
vt -0.561286 0.504141 
vt -0.565663 0.44613 
vt -0.561097 0.560826 
vt -0.612996 0.508617 
vt -0.628212 0.454062 
vt -0.569425 0.383792 
vt -0.633858 0.384852 
vt -0.626083 0.315951 
vt -0.439051 0.739537 
vt -0.43494 0.79764 
vt -0.372766 0.787731 
vt -0.500126 0.6839 
vt -0.500237 0.740758 
vt -0.500353 0.799356 
vt -0.43104 0.859954 
vt -0.366313 0.854882 
vt -0.371807 0.921055 
vt -0.56142 0.739295 
vt -0.50048 0.863059 
vt -0.434861 0.923316 
vt -0.384848 0.970472 
vt -0.43424 0.985168 
vt -0.500608 0.928025 
vt -0.500734 0.991732 
vt -0.567199 0.984905 
vt -0.566334 0.923057 
vt -0.616535 0.970014 
vt -0.629378 0.920545 
vt -0.569904 0.859679 
vt -0.634613 0.854352 
vt -0.627894 0.787228 
vt -0.565759 0.797381 
vt -0.613055 0.73393 
vt -0.561189 0.682459 
vt -0.562406 0.621622 
vt -0.61821 0.682389 
vt -0.618107 0.560243 
vt -0.619451 0.621324 
vt -0.678118 0.621047 
vt -0.676436 0.6864 
vt -0.66661 0.748552 
vt -0.67614 0.55569 
vt -0.665951 0.493595 
vt -0.738821 0.690179 
vt -0.733866 0.754902 
vt -0.800069 0.749276 
vt -0.741836 0.620764 
vt -0.738371 0.55137 
vt -0.732933 0.486684 
vt -0.799085 0.491747 
vt -0.802208 0.686225 
vt -0.849473 0.736128 
vt -0.864072 0.686707 
vt -0.801723 0.55478 
vt -0.848567 0.50447 
vt -0.863559 0.553765 
vt -0.806804 0.620482 
vt -0.870511 0.620208 

usemtl Meshesvolleyballball1Mtl

f 1/1/1 2/2/2 3/3/3 
f 1/1/1 3/3/3 4/4/4 
f 4/4/4 5/5/5 6/6/6 
f 4/4/4 3/3/3 7/7/7 
f 5/5/5 4/4/4 7/7/7 
f 8/8/8 6/6/6 5/5/5 
f 3/3/3 9/9/9 7/7/7 
f 9/9/9 5/5/5 7/7/7 
f 2/2/2 10/10/10 3/3/3 
f 9/9/9 3/3/3 10/10/10 
f 10/10/10 2/2/2 11/11/11 
f 12/12/12 8/8/8 5/5/5 
f 9/9/9 12/12/12 5/5/5 
f 12/12/12 13/13/13 8/8/8 
f 10/10/10 14/14/14 9/9/9 
f 14/14/14 12/12/12 9/9/9 
f 11/11/11 15/15/15 10/10/10 
f 14/14/14 10/10/10 15/15/15 
f 15/15/15 11/11/11 16/16/16 
f 17/17/17 15/15/15 16/16/16 
f 18/18/18 13/13/13 12/12/12 
f 14/14/14 18/18/18 12/12/12 
f 18/18/18 19/19/19 13/13/13 
f 18/18/18 20/20/20 19/19/19 
f 17/17/17 21/21/21 15/15/15 
f 21/21/21 14/14/14 15/15/15 
f 21/21/21 17/17/17 22/22/22 
f 22/22/22 23/23/23 21/21/21 
f 20/20/20 18/18/18 24/24/24 
f 14/14/14 24/24/24 18/18/18 
f 24/24/24 25/25/25 20/20/20 
f 25/25/25 24/24/24 26/26/26 
f 24/24/24 14/14/14 27/27/27 
f 21/21/21 27/27/27 14/14/14 
f 27/27/27 26/26/26 24/24/24 
f 23/23/23 27/27/27 21/21/21 
f 26/26/26 27/27/27 28/28/28 
f 23/23/23 28/28/28 27/27/27 
f 29/29/29 30/30/30 31/31/31 
f 32/32/32 31/31/31 30/30/30 
f 31/31/31 32/32/32 33/33/33 
f 34/34/34 33/33/33 32/32/32 
f 33/33/33 34/34/34 35/35/35 
f 34/34/34 36/36/36 35/35/35 
f 36/36/36 34/34/34 37/37/37 
f 36/36/36 37/37/37 38/38/38 
f 38/38/38 37/37/37 39/39/39 
f 40/40/40 37/37/37 34/34/34 
f 32/32/32 40/40/40 34/34/34 
f 41/41/41 39/39/39 37/37/37 
f 37/37/37 40/40/40 41/41/41 
f 39/39/39 41/41/41 42/42/42 
f 41/41/41 43/43/43 42/42/42 
f 43/43/43 41/41/41 44/44/44 
f 40/40/40 44/44/44 41/41/41 
f 44/44/44 45/45/45 43/43/43 
f 45/45/45 44/44/44 46/46/46 
f 47/47/47 46/46/46 44/44/44 
f 44/44/44 40/40/40 47/47/47 
f 46/46/46 47/47/47 48/48/48 
f 47/47/47 49/49/49 48/48/48 
f 49/49/49 47/47/47 50/50/50 
f 40/40/40 50/50/50 47/47/47 
f 50/50/50 51/51/51 49/49/49 
f 40/40/40 32/32/32 52/52/52 
f 50/50/50 40/40/40 52/52/52 
f 30/30/30 52/52/52 32/32/32 
f 52/52/52 53/53/53 50/50/50 
f 51/51/51 50/50/50 53/53/53 
f 52/52/52 30/30/30 54/54/54 
f 53/53/53 52/52/52 54/54/54 
f 55/55/55 54/54/54 30/30/30 
f 55/55/55 53/53/53 54/54/54 
f 55/55/55 30/30/30 29/29/29 
f 56/56/56 51/51/51 53/53/53 
f 53/53/53 55/55/55 56/56/56 
f 57/57/57 56/56/56 55/55/55 
f 57/57/57 55/55/55 29/29/29 
f 51/51/51 56/56/56 58/58/58 
f 56/56/56 57/57/57 59/59/59 
f 59/59/59 58/58/58 56/56/56 
f 58/58/58 60/60/60 51/51/51 
f 51/51/51 60/60/60 61/61/61 
f 58/58/58 59/59/59 62/62/62 
f 60/60/60 63/63/63 61/61/61 
f 61/61/61 63/63/63 64/64/64 
f 63/63/63 65/65/65 64/64/64 
f 58/58/58 66/66/66 60/60/60 
f 62/62/62 66/66/66 58/58/58 
f 60/60/60 67/67/67 63/63/63 
f 66/66/66 67/67/67 60/60/60 
f 65/65/65 63/63/63 6/6/6 
f 67/67/67 6/6/6 63/63/63 
f 6/6/6 8/8/8 65/65/65 
f 68/68/68 66/66/66 62/62/62 
f 68/68/68 62/62/62 59/59/59 
f 66/66/66 68/68/68 69/69/69 
f 69/69/69 67/67/67 66/66/66 
f 68/68/68 59/59/59 70/70/70 
f 71/71/71 69/69/69 68/68/68 
f 71/71/71 68/68/68 70/70/70 
f 70/70/70 59/59/59 57/57/57 
f 69/69/69 71/71/71 72/72/72 
f 72/72/72 73/73/73 69/69/69 
f 67/67/67 69/69/69 73/73/73 
f 73/73/73 72/72/72 74/74/74 
f 74/74/74 75/75/75 73/73/73 
f 73/73/73 75/75/75 1/1/1 
f 73/73/73 1/1/1 67/67/67 
f 75/75/75 2/2/2 1/1/1 
f 67/67/67 1/1/1 4/4/4 
f 6/6/6 67/67/67 4/4/4 
f 29/29/29 31/31/31 76/76/76 
f 31/31/31 77/77/77 76/76/76 
f 77/77/77 31/31/31 78/78/78 
f 79/79/79 29/29/29 76/76/76 
f 57/57/57 29/29/29 79/79/79 
f 79/79/79 76/76/76 80/80/80 
f 81/81/81 76/76/76 77/77/77 
f 76/76/76 81/81/81 80/80/80 
f 78/78/78 82/82/82 77/77/77 
f 82/82/82 78/78/78 83/83/83 
f 82/82/82 83/83/83 84/84/84 
f 85/85/85 79/79/79 80/80/80 
f 85/85/85 80/80/80 81/81/81 
f 86/86/86 77/77/77 82/82/82 
f 77/77/77 86/86/86 81/81/81 
f 82/82/82 84/84/84 87/87/87 
f 86/86/86 82/82/82 87/87/87 
f 87/87/87 84/84/84 88/88/88 
f 87/87/87 88/88/88 89/89/89 
f 90/90/90 87/87/87 89/89/89 
f 86/86/86 87/87/87 90/90/90 
f 90/90/90 89/89/89 91/91/91 
f 92/92/92 90/90/90 91/91/91 
f 90/90/90 92/92/92 93/93/93 
f 93/93/93 86/86/86 90/90/90 
f 94/94/94 93/93/93 92/92/92 
f 93/93/93 94/94/94 95/95/95 
f 95/95/95 96/96/96 93/93/93 
f 86/86/86 93/93/93 96/96/96 
f 96/96/96 95/95/95 97/97/97 
f 98/98/98 96/96/96 97/97/97 
f 99/99/99 86/86/86 96/96/96 
f 98/98/98 99/99/99 96/96/96 
f 99/99/99 81/81/81 86/86/86 
f 85/85/85 81/81/81 99/99/99 
f 99/99/99 98/98/98 100/100/100 
f 100/100/100 85/85/85 99/99/99 
f 100/100/100 101/101/101 85/85/85 
f 79/79/79 85/85/85 101/101/101 
f 101/101/101 57/57/57 79/79/79 
f 57/57/57 101/101/101 102/102/102 
f 70/70/70 57/57/57 102/102/102 
f 101/101/101 100/100/100 103/103/103 
f 103/103/103 102/102/102 101/101/101 
f 104/104/104 70/70/70 102/102/102 
f 102/102/102 103/103/103 105/105/105 
f 104/104/104 102/102/102 105/105/105 
f 70/70/70 104/104/104 71/71/71 
f 105/105/105 103/103/103 106/106/106 
f 106/106/106 104/104/104 105/105/105 
f 103/103/103 100/100/100 107/107/107 
f 103/103/103 107/107/107 106/106/106 
f 100/100/100 108/108/108 107/107/107 
f 109/109/109 71/71/71 104/104/104 
f 104/104/104 106/106/106 109/109/109 
f 71/71/71 109/109/109 110/110/110 
f 107/107/107 108/108/108 111/111/111 
f 108/108/108 112/112/112 111/111/111 
f 113/113/113 111/111/111 112/112/112 
f 106/106/106 107/107/107 114/114/114 
f 114/114/114 109/109/109 106/106/106 
f 107/107/107 111/111/111 114/114/114 
f 115/115/115 110/110/110 109/109/109 
f 109/109/109 114/114/114 115/115/115 
f 110/110/110 115/115/115 116/116/116 
f 116/116/116 115/115/115 117/117/117 
f 111/111/111 113/113/113 118/118/118 
f 118/118/118 114/114/114 111/111/111 
f 119/119/119 118/118/118 113/113/113 
f 118/118/118 119/119/119 120/120/120 
f 115/115/115 121/121/121 117/117/117 
f 115/115/115 114/114/114 121/121/121 
f 117/117/117 121/121/121 122/122/122 
f 121/121/121 123/123/123 122/122/122 
f 120/120/120 124/124/124 118/118/118 
f 114/114/114 118/118/118 124/124/124 
f 114/114/114 124/124/124 121/121/121 
f 121/121/121 124/124/124 123/123/123 
f 124/124/124 120/120/120 125/125/125 
f 124/124/124 125/125/125 123/123/123 

