# This file is brought to you by Roblox Corporation
# Generated by Roblox Studio

mtllib Biruta.mtl

g Meshessbiruta1

v 0.360329 -0.780006 -0.599596 
v 0.979134 -3.62 0.701996 
v 0.256401 -0.780006 -0.539596 
v 1.08306 -3.62 0.641994 
v -1.01795 -3.62 -0.570653 
v 0.410454 -0.780006 -0.450653 
v -1.01795 -3.62 -0.450653 
v 0.410454 -0.780006 -0.570653 
v 0.402397 3.62 -0.570653 
v 0.402397 -3.62 -0.570653 
v 0.282402 3.62 -0.570653 
v 0.282402 -3.62 -0.570653 
v -1.14817 -3.62 -0.570653 
v 0.27433 -0.780006 -0.570653 
v -1.01795 -3.62 -0.570653 
v 0.410454 -0.780006 -0.570653 
v 1.08274 -3.62 -1.66386 
v 0.360329 -0.780006 -0.42171 
v 0.978813 -3.62 -1.72386 
v 0.256401 -0.780006 -0.48171 
v -0.0789261 3.34325 -0.670653 
v 0.116753 3.49082 -0.0744944 
v 0.099144 3.52132 -0.670653 
v 0.3424 3.58649 -0.670653 
v -0.0484238 3.32565 -0.0744944 
v -0.144112 3.1 -0.670653 
v 0.3424 3.55128 -0.0744944 
v 0.152321 3.42921 0.601307 
v 0.568047 3.49082 -0.0744944 
v 0.585655 3.52132 -0.670653 
v 0.763725 3.34325 -0.670653 
v 0.733223 3.32565 -0.0744944 
v 0.828896 3.1 -0.670653 
v 0.532463 3.42921 0.601307 
v 0.3424 3.48014 0.601307 
v 0.191811 3.36082 1.27423 
v 0.671608 3.29006 0.601307 
v 0.793678 3.1 -0.0744944 
v 0.733223 2.87435 -0.0744944 
v 0.763725 2.85674 -0.670653 
v 0.568047 2.70918 -0.0744944 
v 0.585655 2.67867 -0.670653 
v 0.3424 2.61349 -0.670653 
v 0.3424 2.64872 -0.0744944 
v 0.671608 2.90992 0.601307 
v 0.532463 2.77079 0.601307 
v 0.3424 2.71986 0.601307 
v 0.722542 3.1 0.601307 
v 0.603218 2.94941 1.27423 
v 0.492973 2.83918 1.27423 
v 0.3424 2.79884 1.27423 
v 0.459496 2.89718 1.83663 
v 0.3424 2.86581 1.83663 
v 0.545219 2.9829 1.83663 
v 0.643562 3.1 1.27423 
v 0.576591 3.1 1.83663 
v 0.545219 3.21709 1.83663 
v 0.603218 3.25057 1.27423 
v 0.459496 3.30282 1.83663 
v 0.492973 3.36082 1.27423 
v 0.3424 3.40116 1.27423 
v 0.324455 -0.780006 -0.599596 
v 0.978813 -3.62 -1.72386 
v 0.256401 -0.780006 -0.48171 
v 1.04392 -3.62 -1.83663 
v 0.428398 -0.780006 -0.48171 
v 1.08306 -3.62 0.641994 
v 0.360329 -0.780006 -0.599596 
v 1.14817 -3.62 0.754768 
v 0.282402 -3.62 -0.450653 
v 0.282402 3.62 -0.450653 
v 0.282402 -3.62 -0.570653 
v 0.282402 3.62 -0.570653 
v 0.402397 3.62 -0.570653 
v 0.402397 -3.62 -0.450653 
v 0.402397 -3.62 -0.570653 
v 0.402397 3.62 -0.450653 
v 0.3424 3.33419 1.83663 
v 0.225304 3.30282 1.83663 
v 0.0815811 3.25057 1.27423 
v 0.13958 3.21709 1.83663 
v 0.0131912 3.29006 0.601307 
v 0.0412369 3.1 1.27423 
v 0.108208 3.1 1.83663 
v 0.13958 2.9829 1.83663 
v -0.0377426 3.1 0.601307 
v 0.0815811 2.94941 1.27423 
v 0.225304 2.89718 1.83663 
v -0.108879 3.1 -0.0744944 
v 0.0131912 2.90992 0.601307 
v -0.0484238 2.87435 -0.0744944 
v -0.0789261 2.85674 -0.670653 
v 0.191811 2.83918 1.27423 
v 0.3424 2.79884 1.27423 
v 0.3424 2.86581 1.83663 
v 0.3424 2.71986 0.601307 
v 0.152321 2.77079 0.601307 
v 0.3424 2.64872 -0.0744944 
v 0.116753 2.70918 -0.0744944 
v 0.099144 2.67867 -0.670653 
v 0.3424 2.61349 -0.670653 
v 1.04424 -3.62 0.814768 
v 0.324455 -0.780006 -0.42171 
v 0.979134 -3.62 0.701996 
v 0.256401 -0.780006 -0.539596 
v 0.428398 -0.780006 -0.539596 
v 1.08274 -3.62 -1.66386 
v 1.14785 -3.62 -1.77663 
v 0.360329 -0.780006 -0.42171 
v 0.428398 -0.780006 -0.539596 
v 1.04392 -3.62 -1.83663 
v 0.324455 -0.780006 -0.599596 
v 1.14785 -3.62 -1.77663 
v 0.402397 -3.62 -0.450653 
v 0.402397 3.62 -0.450653 
v 0.282402 -3.62 -0.450653 
v 0.282402 3.62 -0.450653 
v -1.01795 -3.62 -0.450653 
v 0.27433 -0.780006 -0.450653 
v -1.14817 -3.62 -0.450653 
v 0.410454 -0.780006 -0.450653 
v -1.14817 -3.62 -0.450653 
v 0.27433 -0.780006 -0.450653 
v -1.14817 -3.62 -0.570653 
v 0.27433 -0.780006 -0.570653 
v 1.14817 -3.62 0.754768 
v 0.428398 -0.780006 -0.48171 
v 1.04424 -3.62 0.814768 
v 0.324455 -0.780006 -0.42171 

vn -0.448819 -0.448819 -0.771654 
vn -0.448819 -0.448819 -0.771654 
vn -0.448819 -0.448819 -0.771654 
vn -0.448819 -0.448819 -0.771654 
vn 0.889764 -0.448819 0 
vn 0.889764 -0.448819 0 
vn 0.889764 -0.448819 0 
vn 0.889764 -0.448819 0 
vn 0 0 -1 
vn 0 0 -1 
vn 0 0 -1 
vn 0 0 -1 
vn 0 0 -1 
vn 0 0 -1 
vn 0 0 -1 
vn 0 0 -1 
vn -0.448819 -0.448819 0.771654 
vn -0.448819 -0.448819 0.771654 
vn -0.448819 -0.448819 0.771654 
vn -0.448819 -0.448819 0.771654 
vn -0.866142 0.496063 0.0551181 
vn -0.496063 0.866142 0.0787402 
vn -0.496063 0.866142 0.0551181 
vn 0 1 0.0551181 
vn -0.866142 0.496063 0.0787402 
vn -1 0 0.0551181 
vn 0 1 0.0787402 
vn -0.496063 0.858268 0.110236 
vn 0.496063 0.866142 0.0787402 
vn 0.496063 0.866142 0.0551181 
vn 0.866142 0.496063 0.0551181 
vn 0.866142 0.496063 0.0787402 
vn 1 0 0.0551181 
vn 0.496063 0.858268 0.110236 
vn 0 0.992126 0.110236 
vn -0.496063 0.858268 0.11811 
vn 0.858268 0.496063 0.110236 
vn 1 0 0.0787402 
vn 0.866142 -0.496063 0.0787402 
vn 0.866142 -0.496063 0.0551181 
vn 0.496063 -0.866142 0.0787402 
vn 0.496063 -0.866142 0.0551181 
vn 0 -1 0.0551181 
vn 0 -1 0.0787402 
vn 0.858268 -0.496063 0.110236 
vn 0.496063 -0.858268 0.110236 
vn 0 -0.992126 0.110236 
vn 0.992126 0 0.110236 
vn 0.858268 -0.496063 0.11811 
vn 0.496063 -0.858268 0.11811 
vn 0 -0.992126 0.11811 
vn 0.496063 -0.858268 0.11811 
vn 0 -0.992126 0.11811 
vn 0.858268 -0.496063 0.11811 
vn 0.992126 0 0.11811 
vn 0.992126 0 0.11811 
vn 0.858268 0.496063 0.11811 
vn 0.858268 0.496063 0.11811 
vn 0.496063 0.858268 0.11811 
vn 0.496063 0.858268 0.11811 
vn 0 0.992126 0.11811 
vn -0.866142 0 -0.496063 
vn -0.866142 0 -0.496063 
vn -0.866142 0 -0.496063 
vn -0.866142 0 -0.496063 
vn 0.866142 0 -0.503937 
vn 0.866142 0 -0.503937 
vn 0.866142 0 -0.503937 
vn 0.866142 0 -0.503937 
vn -1 0 0 
vn -1 0 0 
vn -1 0 0 
vn -1 0 0 
vn 1 0 0 
vn 1 0 0 
vn 1 0 0 
vn 1 0 0 
vn 0 0.992126 0.11811 
vn -0.496063 0.858268 0.11811 
vn -0.858268 0.496063 0.11811 
vn -0.858268 0.496063 0.11811 
vn -0.858268 0.496063 0.110236 
vn -0.992126 0 0.11811 
vn -0.992126 0 0.11811 
vn -0.858268 -0.496063 0.11811 
vn -0.992126 0 0.110236 
vn -0.858268 -0.496063 0.11811 
vn -0.496063 -0.858268 0.11811 
vn -1 0 0.0787402 
vn -0.858268 -0.496063 0.110236 
vn -0.866142 -0.496063 0.0787402 
vn -0.866142 -0.496063 0.0551181 
vn -0.496063 -0.858268 0.11811 
vn 0 -0.992126 0.11811 
vn 0 -0.992126 0.11811 
vn 0 -0.992126 0.110236 
vn -0.496063 -0.858268 0.110236 
vn 0 -1 0.0787402 
vn -0.496063 -0.866142 0.0787402 
vn -0.496063 -0.866142 0.0551181 
vn 0 -1 0.0551181 
vn -0.866142 0 0.496063 
vn -0.866142 0 0.496063 
vn -0.866142 0 0.496063 
vn -0.866142 0 0.496063 
vn 0.866142 0 0.503937 
vn 0.866142 0 0.503937 
vn 0.866142 0 0.503937 
vn 0.866142 0 0.503937 
vn 0.448819 0.448819 -0.771654 
vn 0.448819 0.448819 -0.771654 
vn 0.448819 0.448819 -0.771654 
vn 0.448819 0.448819 -0.771654 
vn 0 0 1 
vn 0 0 1 
vn 0 0 1 
vn 0 0 1 
vn 0 0 1 
vn 0 0 1 
vn 0 0 1 
vn 0 0 1 
vn -0.897638 0.448819 0 
vn -0.897638 0.448819 0 
vn -0.897638 0.448819 0 
vn -0.897638 0.448819 0 
vn 0.448819 0.448819 0.771654 
vn 0.448819 0.448819 0.771654 
vn 0.448819 0.448819 0.771654 
vn 0.448819 0.448819 0.771654 

vt 0.0362019 0.870343 
vt 0.0407729 0.74918 
vt 0.040773 0.870347 
vt 0.036202 0.74917 
vt 0.0749761 0.407446 
vt 0.0704052 0.528475 
vt 0.0704053 0.407448 
vt 0.0749761 0.528478 
vt 0.0792685 0.119146 
vt 0.0792685 0.394888 
vt 0.0746985 0.119146 
vt 0.0746985 0.394888 
vt 0.0795102 0.405221 
vt 0.0795101 0.526154 
vt 0.0749761 0.407446 
vt 0.0749761 0.528478 
vt 0.063476 0.737303 
vt 0.0634759 0.858477 
vt 0.058905 0.737307 
vt 0.0589051 0.858486 
vt 0.718316 0.507891 
vt 0.728933 0.485879 
vt 0.728123 0.508525 
vt 0.737954 0.508671 
vt 0.720173 0.485289 
vt 0.708566 0.506784 
vt 0.737707 0.486022 
vt 0.730055 0.460183 
vt 0.746475 0.485719 
vt 0.747774 0.508328 
vt 0.757548 0.507501 
vt 0.755221 0.484973 
vt 0.767246 0.50621 
vt 0.744948 0.460053 
vt 0.737503 0.460317 
vt 0.731351 0.434525 
vt 0.752373 0.459391 
vt 0.763929 0.483794 
vt 0.772589 0.482197 
vt 0.776836 0.504487 
vt 0.781193 0.4802 
vt 0.786293 0.502386 
vt 0.795603 0.499992 
vt 0.78974 0.477826 
vt 0.76709 0.45688 
vt 0.774341 0.455028 
vt 0.781489 0.452768 
vt 0.75976 0.458334 
vt 0.760929 0.431738 
vt 0.76667 0.430166 
vt 0.772297 0.428249 
vt 0.760062 0.409538 
vt 0.764431 0.408017 
vt 0.755594 0.410789 
vt 0.755101 0.432969 
vt 0.751048 0.411771 
vt 0.746442 0.412484 
vt 0.749208 0.433863 
vt 0.741797 0.41293 
vt 0.74327 0.434419 
vt 0.737312 0.43464 
vt 0.0543708 0.856151 
vt 0.058905 0.737307 
vt 0.0589051 0.858486 
vt 0.0543708 0.735072 
vt 0.0316737 0.868008 
vt 0.036202 0.74917 
vt 0.0362019 0.870343 
vt 0.0316737 0.746935 
vt 0.070128 0.394888 
vt 0.070128 0.119146 
vt 0.0746985 0.394888 
vt 0.0746985 0.119146 
vt 0.0792685 0.119146 
vt 0.0838389 0.394888 
vt 0.0792685 0.394888 
vt 0.0838389 0.119146 
vt 0.737131 0.413107 
vt 0.732463 0.413015 
vt 0.725408 0.434072 
vt 0.727814 0.412655 
vt 0.722624 0.459649 
vt 0.719507 0.433281 
vt 0.723201 0.412024 
vt 0.718644 0.411122 
vt 0.715227 0.458715 
vt 0.713666 0.432148 
vt 0.714162 0.409948 
vt 0.711441 0.484257 
vt 0.707885 0.457377 
vt 0.702753 0.482793 
vt 0.698907 0.50523 
vt 0.70791 0.430668 
vt 0.702263 0.428838 
vt 0.709773 0.4085 
vt 0.69346 0.453464 
vt 0.70062 0.455631 
vt 0.685535 0.478639 
vt 0.694117 0.480913 
vt 0.689371 0.503279 
vt 0.67998 0.501005 
vt 0.0271025 0.746938 
vt 0.0271025 0.868021 
vt 0.0225706 0.749168 
vt 0.0225707 0.870361 
vt 0.0497996 0.856149 
vt 0.0452741 0.737292 
vt 0.0497996 0.735061 
vt 0.0452741 0.85849 
vt 0.0497996 0.856149 
vt 0.0543708 0.735072 
vt 0.0543708 0.856151 
vt 0.0497996 0.735061 
vt 0.0838389 0.394888 
vt 0.0838389 0.119146 
vt 0.0884089 0.394888 
vt 0.0884089 0.119146 
vt 0.0886176 0.407436 
vt 0.0840809 0.526159 
vt 0.0840809 0.405217 
vt 0.0886175 0.528489 
vt 0.0840809 0.405217 
vt 0.0840809 0.526159 
vt 0.0795102 0.405221 
vt 0.0795101 0.526154 
vt 0.0316737 0.746935 
vt 0.0316737 0.868008 
vt 0.0271025 0.746938 
vt 0.0271025 0.868021 

usemtl Meshessbiruta1Mtl

f 1/1/1 2/2/2 3/3/3 
f 2/2/2 1/1/1 4/4/4 
f 5/5/5 6/6/6 7/7/7 
f 6/6/6 5/5/5 8/8/8 
f 9/9/9 10/10/10 11/11/11 
f 11/11/11 10/10/10 12/12/12 
f 13/13/13 14/14/14 15/15/15 
f 16/16/16 15/15/15 14/14/14 
f 17/17/17 18/18/18 19/19/19 
f 19/19/19 18/18/18 20/20/20 
f 21/21/21 22/22/22 23/23/23 
f 23/23/23 22/22/22 24/24/24 
f 22/22/22 21/21/21 25/25/25 
f 26/26/26 25/25/25 21/21/21 
f 24/24/24 22/22/22 27/27/27 
f 25/25/25 28/28/28 22/22/22 
f 22/22/22 28/28/28 27/27/27 
f 29/29/29 24/24/24 27/27/27 
f 24/24/24 29/29/29 30/30/30 
f 30/30/30 29/29/29 31/31/31 
f 31/31/31 29/29/29 32/32/32 
f 31/31/31 32/32/32 33/33/33 
f 27/27/27 34/34/34 29/29/29 
f 29/29/29 34/34/34 32/32/32 
f 27/27/27 28/28/28 35/35/35 
f 34/34/34 27/27/27 35/35/35 
f 28/28/28 36/36/36 35/35/35 
f 32/32/32 34/34/34 37/37/37 
f 33/33/33 32/32/32 38/38/38 
f 32/32/32 37/37/37 38/38/38 
f 39/39/39 33/33/33 38/38/38 
f 33/33/33 39/39/39 40/40/40 
f 41/41/41 40/40/40 39/39/39 
f 40/40/40 41/41/41 42/42/42 
f 42/42/42 41/41/41 43/43/43 
f 43/43/43 41/41/41 44/44/44 
f 39/39/39 45/45/45 41/41/41 
f 38/38/38 45/45/45 39/39/39 
f 41/41/41 46/46/46 44/44/44 
f 41/41/41 45/45/45 46/46/46 
f 44/44/44 46/46/46 47/47/47 
f 45/45/45 38/38/38 48/48/48 
f 38/38/38 37/37/37 48/48/48 
f 45/45/45 49/49/49 46/46/46 
f 48/48/48 49/49/49 45/45/45 
f 46/46/46 50/50/50 47/47/47 
f 49/49/49 50/50/50 46/46/46 
f 47/47/47 50/50/50 51/51/51 
f 50/50/50 52/52/52 51/51/51 
f 51/51/51 52/52/52 53/53/53 
f 54/54/54 52/52/52 50/50/50 
f 49/49/49 54/54/54 50/50/50 
f 55/55/55 54/54/54 49/49/49 
f 49/49/49 48/48/48 55/55/55 
f 54/54/54 55/55/55 56/56/56 
f 55/55/55 57/57/57 56/56/56 
f 48/48/48 58/58/58 55/55/55 
f 58/58/58 57/57/57 55/55/55 
f 37/37/37 58/58/58 48/48/48 
f 59/59/59 57/57/57 58/58/58 
f 60/60/60 58/58/58 37/37/37 
f 60/60/60 59/59/59 58/58/58 
f 34/34/34 60/60/60 37/37/37 
f 35/35/35 60/60/60 34/34/34 
f 61/61/61 59/59/59 60/60/60 
f 60/60/60 35/35/35 61/61/61 
f 62/62/62 63/63/63 64/64/64 
f 63/63/63 62/62/62 65/65/65 
f 66/66/66 67/67/67 68/68/68 
f 67/67/67 66/66/66 69/69/69 
f 70/70/70 71/71/71 72/72/72 
f 73/73/73 72/72/72 71/71/71 
f 74/74/74 75/75/75 76/76/76 
f 75/75/75 74/74/74 77/77/77 
f 59/59/59 61/61/61 78/78/78 
f 61/61/61 79/79/79 78/78/78 
f 35/35/35 36/36/36 61/61/61 
f 36/36/36 79/79/79 61/61/61 
f 80/80/80 79/79/79 36/36/36 
f 79/79/79 80/80/80 81/81/81 
f 36/36/36 82/82/82 80/80/80 
f 82/82/82 36/36/36 28/28/28 
f 28/28/28 25/25/25 82/82/82 
f 83/83/83 81/81/81 80/80/80 
f 81/81/81 83/83/83 84/84/84 
f 83/83/83 85/85/85 84/84/84 
f 80/80/80 86/86/86 83/83/83 
f 86/86/86 80/80/80 82/82/82 
f 87/87/87 85/85/85 83/83/83 
f 86/86/86 87/87/87 83/83/83 
f 88/88/88 85/85/85 87/87/87 
f 89/89/89 82/82/82 25/25/25 
f 82/82/82 89/89/89 86/86/86 
f 25/25/25 26/26/26 89/89/89 
f 90/90/90 87/87/87 86/86/86 
f 89/89/89 90/90/90 86/86/86 
f 26/26/26 91/91/91 89/89/89 
f 91/91/91 90/90/90 89/89/89 
f 92/92/92 91/91/91 26/26/26 
f 93/93/93 87/87/87 90/90/90 
f 93/93/93 88/88/88 87/87/87 
f 94/94/94 88/88/88 93/93/93 
f 88/88/88 94/94/94 95/95/95 
f 93/93/93 96/96/96 94/94/94 
f 97/97/97 93/93/93 90/90/90 
f 96/96/96 93/93/93 97/97/97 
f 91/91/91 97/97/97 90/90/90 
f 97/97/97 98/98/98 96/96/96 
f 92/92/92 99/99/99 91/91/91 
f 99/99/99 97/97/97 91/91/91 
f 98/98/98 97/97/97 99/99/99 
f 100/100/100 99/99/99 92/92/92 
f 99/99/99 101/101/101 98/98/98 
f 101/101/101 99/99/99 100/100/100 
f 102/102/102 103/103/103 104/104/104 
f 105/105/105 104/104/104 103/103/103 
f 106/106/106 107/107/107 108/108/108 
f 109/109/109 107/107/107 106/106/106 
f 110/110/110 111/111/111 112/112/112 
f 111/111/111 110/110/110 113/113/113 
f 114/114/114 115/115/115 116/116/116 
f 116/116/116 115/115/115 117/117/117 
f 118/118/118 119/119/119 120/120/120 
f 119/119/119 118/118/118 121/121/121 
f 122/122/122 123/123/123 124/124/124 
f 125/125/125 124/124/124 123/123/123 
f 126/126/126 127/127/127 128/128/128 
f 128/128/128 127/127/127 129/129/129 

