# This file is brought to you by Roblox Corporation
# Generated by Roblox Studio

mtllib Gazebo.mtl

g Tent1

v 5.78053 -5.70394 -6 
v 3.54694 2.59462 -4.96717 
v 4.9179 2.59462 -4.91821 
v 5.95501 -5.70394 -5.955 
v -5.77731 -5.70394 6 
v -4.9229 2.59462 4.92288 
v -5.95501 -5.70394 5.955 
v -3.56622 2.59462 4.96717 
v 5.99999 -5.70394 5.75105 
v 4.96717 2.59462 3.55696 
v 4.92289 2.59462 4.92289 
v 5.95501 -5.70394 5.955 
v 5.95501 -5.70394 5.955 
v 4.92289 2.59462 4.92289 
v 5.78053 -5.70394 6 
v 3.54694 2.59462 4.96717 
v -5.99999 -5.70394 -5.74759 
v -4.95889 2.59462 -3.59629 
v -4.91253 2.59462 -4.91254 
v -5.95501 -5.70394 -5.955 
v -5.95501 -5.70394 -5.955 
v -4.91253 2.59462 -4.91254 
v -5.77731 -5.70394 -6 
v -3.56622 2.59462 -4.95889 
v -5.95501 -5.70394 5.955 
v -4.9229 2.59462 4.92288 
v -5.99999 -5.70394 5.75105 
v -4.96719 2.59462 3.55696 
v 4.9179 2.59462 -4.91821 
v 5.99999 -5.70394 -5.74759 
v 5.95501 -5.70394 -5.955 
v 4.95887 2.59462 -3.59629 
v 4.76374 3.85511 1.76865 
v 4.82367 3.71171 3.55696 
v 4.82339 3.7004 1.76865 
v 4.96717 2.59462 3.55696 
v 4.9651 2.27755 1.76865 
v 4.96304 2.58479 -0.000497222 
v 4.78101 3.71154 4.78102 
v 4.92289 2.59462 4.92289 
v 4.747 3.8367 4.74702 
v 4.76386 3.85514 3.55696 
v 4.62215 3.88655 4.62218 
v 4.63803 3.90393 3.45316 
v 2.58099 4.70157 2.58128 
v 2.58093 4.70155 1.75618 
v -0.000332832 5.70394 0.00031364 
v 4.63791 3.9039 1.72324 
v 2.58083 4.70155 0.980783 
v 2.58074 4.70155 -0.000497222 
v 4.63779 3.90386 -0.000497222 
v 4.76362 3.85507 -0.000497222 
v 4.82311 3.71122 -0.000497222 
v 2.58066 4.70155 -1.00231 
v 2.58077 4.70155 -1.6768 
v 2.58087 4.70157 -2.58089 
v 4.6377 3.90383 -1.76154 
v 4.63761 3.9038 -3.48565 
v 4.62075 3.88314 -4.6207 
v 4.76353 3.85504 -1.80798 
v 4.76342 3.85501 -3.59629 
v 4.74552 3.83308 -4.74548 
v 4.82253 3.71142 -3.59629 
v 4.77914 3.70359 -4.77909 
v 4.82283 3.70025 -1.80798 
v 4.96093 2.27755 -1.80798 
v 4.95887 2.59462 -3.59629 
v 4.9179 2.59462 -4.91821 
v 3.54691 3.85514 4.76382 
v 1.76867 3.85516 4.76381 
v 3.54692 3.7118 4.82367 
v 4.747 3.8367 4.74702 
v 4.62215 3.88655 4.62218 
v 4.78101 3.71154 4.78102 
v 3.44515 3.90393 4.63802 
v 2.58099 4.70157 2.58128 
v 3.54694 2.59462 4.96717 
v 4.92289 2.59462 4.92289 
v 1.76867 3.70059 4.82366 
v 1.76865 2.27755 4.96717 
v -0.000294685 2.56945 4.96717 
v 1.7815 4.70155 2.58124 
v -0.000293732 3.71097 4.82367 
v -0.000332832 5.70394 0.00031364 
v 1.72324 3.90395 4.638 
v -0.000293732 3.85516 4.76381 
v -1.78793 3.70065 4.82367 
v -1.78793 2.27755 4.96717 
v -3.56622 2.59462 4.96717 
v -1.78793 3.85517 4.76379 
v -3.56622 3.71192 4.82364 
v -4.78103 3.71152 4.78103 
v -4.9229 2.59462 4.92288 
v -4.747 3.8367 4.74702 
v -3.56622 3.85517 4.76378 
v -4.62216 3.88655 4.62218 
v -3.46442 3.90396 4.63797 
v -2.58127 4.70158 2.58126 
v -1.74202 3.90396 4.63798 
v -1.80024 4.70155 2.58122 
v -0.991512 4.70151 2.58119 
v -0.000293732 3.90395 4.638 
v -0.000293732 4.70151 2.5812 
v 0.980516 4.70152 2.5812 
v 3.44515 3.90393 -4.63801 
v 1.72324 3.90389 -4.63791 
v 1.7815 4.70155 -2.58089 
v 2.58087 4.70157 -2.58089 
v 4.62075 3.88314 -4.6207 
v -0.000332832 5.70394 0.00031364 
v 3.54691 3.85514 -4.76384 
v 4.74552 3.83308 -4.74548 
v 1.76867 3.8551 -4.76373 
v 3.54692 3.71176 -4.82367 
v 4.77914 3.70359 -4.77909 
v 3.54694 2.59462 -4.96717 
v 4.9179 2.59462 -4.91821 
v 1.76867 3.7004 -4.82339 
v 1.76865 2.27755 -4.9651 
v -0.000293732 2.56945 -4.96304 
v -0.000293732 3.71063 -4.82312 
v -0.000293732 3.85505 -4.76365 
v -1.78793 3.70016 -4.82284 
v -1.78793 2.27755 -4.96096 
v -3.56622 2.59462 -4.95889 
v -1.78793 3.85501 -4.76355 
v -3.56622 3.71129 -4.82256 
v -4.78019 3.7072 -4.77767 
v -4.91253 2.59462 -4.91254 
v -4.74673 3.83468 -4.74481 
v -3.56622 3.85496 -4.76344 
v -4.6219 3.88465 -4.62008 
v -3.46442 3.90376 -4.63763 
v -2.5812 4.7015 -2.58091 
v -1.74202 3.9038 -4.63773 
v -1.80024 4.70153 -2.5808 
v -0.000293732 3.90385 -4.63783 
v -0.991512 4.70152 -2.5808 
v -0.000293732 4.70153 -2.58082 
v 0.980516 4.70155 -2.58083 
v -4.63795 3.9039 1.72324 
v -2.58123 4.70155 1.75628 
v -2.58115 4.70153 0.980798 
v -0.000332832 5.70394 0.00031364 
v -2.58127 4.70158 2.58126 
v -2.58113 4.70151 -0.000497341 
v -4.63807 3.90393 3.45317 
v -4.62216 3.88655 4.62218 
v -4.63783 3.90386 -0.000497341 
v -4.76388 3.85514 3.55696 
v -4.747 3.8367 4.74702 
v -4.76376 3.85511 1.76865 
v -4.82369 3.71171 3.55696 
v -4.78103 3.71152 4.78103 
v -4.96719 2.59462 3.55696 
v -4.9229 2.59462 4.92288 
v -4.82338 3.7004 1.76865 
v -4.96508 2.27755 1.76865 
v -4.96306 2.58479 -0.000497222 
v -4.82313 3.71122 -0.000497222 
v -4.76364 3.85507 -0.000497222 
v -4.82282 3.70025 -1.80798 
v -4.96096 2.27755 -1.80798 
v -4.95889 2.59462 -3.59629 
v -4.76351 3.85504 -1.80798 
v -4.82254 3.71142 -3.59629 
v -4.78019 3.7072 -4.77767 
v -4.91253 2.59462 -4.91254 
v -4.74673 3.83468 -4.74481 
v -4.76339 3.85501 -3.59629 
v -4.6219 3.88465 -4.62008 
v -4.6376 3.9038 -3.48565 
v -2.5812 4.7015 -2.58091 
v -4.63771 3.90383 -1.76154 
v -2.58113 4.70151 -1.6769 
v -2.58112 4.70149 -1.00237 

vn 0.0629921 0.133858 -0.992126 
vn 0.0393701 0.125984 -0.992126 
vn 0.0551181 0.133858 -0.992126 
vn 0.0629921 0.133858 -0.992126 
vn -0.0551181 0.133858 0.992126 
vn -0.0551181 0.133858 0.992126 
vn -0.0551181 0.133858 0.992126 
vn -0.0393701 0.125984 0.992126 
vn 0.992126 0.133858 0.0551181 
vn 0.992126 0.125984 0.0314961 
vn 0.992126 0.133858 0.0551181 
vn 0.992126 0.133858 0.0551181 
vn 0.0551181 0.133858 0.992126 
vn 0.0551181 0.133858 0.992126 
vn 0.0551181 0.133858 0.992126 
vn 0.0314961 0.125984 0.992126 
vn -0.992126 0.133858 -0.0629921 
vn -0.992126 0.125984 -0.0393701 
vn -0.992126 0.133858 -0.0551181 
vn -0.992126 0.133858 -0.0629921 
vn -0.0629921 0.133858 -0.992126 
vn -0.0551181 0.133858 -0.992126 
vn -0.0629921 0.133858 -0.992126 
vn -0.0393701 0.125984 -0.992126 
vn -0.992126 0.133858 0.0551181 
vn -0.992126 0.133858 0.0551181 
vn -0.992126 0.133858 0.0551181 
vn -0.992126 0.125984 0.0314961 
vn 0.992126 0.133858 -0.0551181 
vn 0.992126 0.133858 -0.0551181 
vn 0.992126 0.133858 -0.0551181 
vn 0.992126 0.125984 -0.0314961 
vn 0.732283 0.685039 0 
vn 0.992126 0.141732 0.00787402 
vn 0.992126 0.141732 0 
vn 0.992126 0.125984 0.0314961 
vn 0.992126 0.110236 0 
vn 0.992126 0.110236 0 
vn 0.992126 0.149606 0.0314961 
vn 0.992126 0.133858 0.0551181 
vn 0.834646 0.551181 0.023622 
vn 0.740157 0.669291 0.00787402 
vn 0.354331 0.937008 0.015748 
vn 0.362205 0.937008 0.00787402 
vn 0.362205 0.937008 0.00787402 
vn 0.362205 0.929134 0 
vn 0.362205 0.929134 0 
vn 0.362205 0.929134 0 
vn 0.362205 0.929134 0 
vn 0.362205 0.929134 0 
vn 0.362205 0.929134 0 
vn 0.732283 0.685039 0 
vn 0.992126 0.141732 0 
vn 0.362205 0.929134 0 
vn 0.362205 0.929134 0 
vn 0.354331 0.937008 -0.00787402 
vn 0.362205 0.929134 0 
vn 0.362205 0.937008 -0.00787402 
vn 0.354331 0.937008 -0.015748 
vn 0.732283 0.677165 0 
vn 0.748031 0.669291 -0.015748 
vn 0.834646 0.551181 -0.0314961 
vn 0.992126 0.141732 -0.00787402 
vn 0.992126 0.141732 -0.0314961 
vn 0.992126 0.133858 0 
vn 0.992126 0.110236 0 
vn 0.992126 0.125984 -0.0314961 
vn 0.992126 0.133858 -0.0551181 
vn 0.00787402 0.669291 0.740157 
vn 0 0.685039 0.732283 
vn 0.00787402 0.141732 0.992126 
vn 0.023622 0.551181 0.834646 
vn 0.015748 0.937008 0.354331 
vn 0.0314961 0.149606 0.992126 
vn 0.00787402 0.937008 0.362205 
vn 0.00787402 0.937008 0.362205 
vn 0.0314961 0.125984 0.992126 
vn 0.0551181 0.133858 0.992126 
vn 0 0.141732 0.992126 
vn 0 0.110236 0.992126 
vn 0 0.110236 0.992126 
vn 0 0.929134 0.362205 
vn 0 0.141732 0.992126 
vn 0 0.929134 0.362205 
vn 0 0.929134 0.362205 
vn 0 0.685039 0.732283 
vn 0 0.141732 0.992126 
vn 0 0.110236 0.992126 
vn -0.0393701 0.125984 0.992126 
vn 0 0.685039 0.732283 
vn -0.00787402 0.141732 0.992126 
vn -0.0314961 0.149606 0.992126 
vn -0.0551181 0.133858 0.992126 
vn -0.023622 0.551181 0.834646 
vn -0.00787402 0.669291 0.740157 
vn -0.015748 0.937008 0.354331 
vn -0.00787402 0.937008 0.362205 
vn -0.00787402 0.937008 0.362205 
vn 0 0.929134 0.362205 
vn 0 0.929134 0.362205 
vn 0 0.929134 0.362205 
vn 0 0.929134 0.362205 
vn 0 0.929134 0.362205 
vn 0 0.929134 0.362205 
vn 0.00787402 0.937008 -0.362205 
vn 0 0.929134 -0.362205 
vn 0 0.929134 -0.362205 
vn 0.00787402 0.937008 -0.354331 
vn 0.015748 0.937008 -0.354331 
vn 0 0.929134 -0.362205 
vn 0.015748 0.669291 -0.740157 
vn 0.0314961 0.551181 -0.834646 
vn 0 0.685039 -0.732283 
vn 0.00787402 0.141732 -0.992126 
vn 0.0393701 0.141732 -0.992126 
vn 0.0393701 0.125984 -0.992126 
vn 0.0551181 0.133858 -0.992126 
vn 0 0.141732 -0.992126 
vn 0 0.110236 -0.992126 
vn 0 0.110236 -0.992126 
vn 0 0.141732 -0.992126 
vn 0 0.677165 -0.732283 
vn 0 0.133858 -0.992126 
vn 0 0.110236 -0.992126 
vn -0.0393701 0.125984 -0.992126 
vn 0 0.677165 -0.732283 
vn -0.00787402 0.141732 -0.992126 
vn -0.0314961 0.141732 -0.992126 
vn -0.0551181 0.133858 -0.992126 
vn -0.0314961 0.551181 -0.834646 
vn -0.015748 0.669291 -0.740157 
vn -0.015748 0.937008 -0.354331 
vn -0.00787402 0.937008 -0.362205 
vn -0.00787402 0.937008 -0.362205 
vn 0 0.929134 -0.362205 
vn 0 0.929134 -0.362205 
vn 0 0.929134 -0.362205 
vn 0 0.929134 -0.362205 
vn 0 0.929134 -0.362205 
vn 0 0.929134 -0.362205 
vn -0.362205 0.929134 0 
vn -0.362205 0.929134 0 
vn -0.362205 0.929134 0 
vn -0.362205 0.929134 0 
vn -0.362205 0.937008 0.00787402 
vn -0.362205 0.929134 0 
vn -0.362205 0.937008 0.00787402 
vn -0.354331 0.937008 0.015748 
vn -0.362205 0.929134 0 
vn -0.740157 0.669291 0.00787402 
vn -0.834646 0.551181 0.023622 
vn -0.732283 0.685039 0 
vn -0.992126 0.141732 0.00787402 
vn -0.992126 0.149606 0.0314961 
vn -0.992126 0.125984 0.0314961 
vn -0.992126 0.133858 0.0551181 
vn -0.992126 0.141732 0 
vn -0.992126 0.110236 0 
vn -0.992126 0.110236 0 
vn -0.992126 0.141732 0 
vn -0.732283 0.677165 0 
vn -0.992126 0.133858 0 
vn -0.992126 0.110236 0 
vn -0.992126 0.125984 -0.0393701 
vn -0.732283 0.677165 0 
vn -0.992126 0.141732 -0.00787402 
vn -0.992126 0.141732 -0.0314961 
vn -0.992126 0.133858 -0.0551181 
vn -0.834646 0.551181 -0.0314961 
vn -0.748031 0.669291 -0.015748 
vn -0.354331 0.937008 -0.015748 
vn -0.362205 0.937008 -0.00787402 
vn -0.362205 0.937008 -0.00787402 
vn -0.362205 0.929134 0 
vn -0.362205 0.929134 0 
vn -0.362205 0.929134 0 

vt 0.614297 0.0621551 
vt 0.290261 0.105967 
vt 0.296107 0.0546948 
vt 0.614937 0.0546253 
vt 0.615058 0.0621894 
vt 0.29537 0.0546939 
vt 0.615701 0.0546241 
vt 0.289497 0.106207 
vt 0.615476 0.0622082 
vt 0.289078 0.106339 
vt 0.294966 0.0546935 
vt 0.61612 0.0546235 
vt 0.61612 0.0546235 
vt 0.294966 0.0546935 
vt 0.615404 0.0469782 
vt 0.289086 0.00341648 
vt 0.613599 0.0621237 
vt 0.290962 0.105746 
vt 0.296782 0.0546956 
vt 0.614235 0.0546265 
vt 0.614235 0.0546265 
vt 0.296782 0.0546956 
vt 0.613528 0.0470692 
vt 0.29097 0.00400954 
vt 0.615701 0.0546241 
vt 0.29537 0.0546939 
vt 0.614987 0.0469984 
vt 0.289505 0.00354844 
vt 0.296107 0.0546948 
vt 0.614226 0.0470354 
vt 0.614937 0.0546253 
vt 0.290269 0.00378889 
vt 0.131475 0.798972 
vt 0.129044 0.868117 
vt 0.125181 0.799145 
vt 0.0861154 0.870084 
vt 0.0709036 0.800778 
vt 0.0805275 0.731064 
vt 0.132773 0.915142 
vt 0.0899653 0.922704 
vt 0.137744 0.913648 
vt 0.134941 0.86787 
vt 0.142642 0.908618 
vt 0.139851 0.8637 
vt 0.221687 0.827442 
vt 0.219912 0.796151 
vt 0.318569 0.727933 
vt 0.13653 0.797078 
vt 0.218645 0.766671 
vt 0.217785 0.729258 
vt 0.134739 0.730362 
vt 0.129634 0.730429 
vt 0.123741 0.730505 
vt 0.217652 0.691055 
vt 0.218059 0.665391 
vt 0.219072 0.631065 
vt 0.134788 0.662175 
vt 0.136367 0.595733 
vt 0.137905 0.552064 
vt 0.129685 0.660375 
vt 0.131358 0.591433 
vt 0.132873 0.547167 
vt 0.125465 0.591335 
vt 0.127701 0.545809 
vt 0.123389 0.660364 
vt 0.069109 0.660119 
vt 0.0825513 0.590441 
vt 0.0850217 0.539432 
vt 0.18397 0.915233 
vt 0.252554 0.916841 
vt 0.183881 0.921132 
vt 0.137744 0.913648 
vt 0.142642 0.908618 
vt 0.136383 0.918655 
vt 0.187928 0.910211 
vt 0.221687 0.827442 
vt 0.183062 0.964099 
vt 0.129968 0.961645 
vt 0.252548 0.923136 
vt 0.252365 0.97745 
vt 0.321786 0.966555 
vt 0.252041 0.828351 
vt 0.321194 0.922755 
vt 0.318569 0.727933 
vt 0.254312 0.911738 
vt 0.321115 0.916848 
vt 0.390548 0.921255 
vt 0.392204 0.975546 
vt 0.461116 0.960318 
vt 0.390372 0.914961 
vt 0.459133 0.917383 
vt 0.505803 0.913673 
vt 0.513379 0.956476 
vt 0.504307 0.908702 
vt 0.458884 0.911491 
vt 0.499277 0.903807 
vt 0.45479 0.906578 
vt 0.418083 0.82479 
vt 0.388458 0.909908 
vt 0.388466 0.826483 
vt 0.357719 0.827825 
vt 0.321046 0.911744 
vt 0.319926 0.828706 
vt 0.28252 0.828849 
vt 0.183076 0.549249 
vt 0.249378 0.545901 
vt 0.249377 0.629332 
vt 0.219072 0.631065 
vt 0.137905 0.552064 
vt 0.318569 0.727933 
vt 0.178983 0.544338 
vt 0.132873 0.547167 
vt 0.24748 0.540846 
vt 0.178727 0.538446 
vt 0.131373 0.54204 
vt 0.176682 0.495526 
vt 0.123845 0.49956 
vt 0.247302 0.534549 
vt 0.245627 0.480277 
vt 0.31534 0.489296 
vt 0.315931 0.53307 
vt 0.316011 0.538981 
vt 0.385297 0.532706 
vt 0.385511 0.478429 
vt 0.454821 0.491839 
vt 0.385289 0.539003 
vt 0.453951 0.53475 
vt 0.500677 0.537152 
vt 0.506785 0.494348 
vt 0.499327 0.542238 
vt 0.453856 0.540647 
vt 0.49443 0.547267 
vt 0.449896 0.545667 
vt 0.415409 0.628406 
vt 0.383511 0.544107 
vt 0.385766 0.627516 
vt 0.31608 0.544086 
vt 0.355001 0.627003 
vt 0.317208 0.627143 
vt 0.279822 0.62801 
vt 0.502379 0.792143 
vt 0.419014 0.793467 
vt 0.419487 0.763959 
vt 0.318569 0.727933 
vt 0.418083 0.82479 
vt 0.419341 0.726535 
vt 0.500855 0.858831 
vt 0.499277 0.903807 
vt 0.502374 0.725403 
vt 0.505876 0.862866 
vt 0.504307 0.908702 
vt 0.507483 0.7939 
vt 0.511778 0.862954 
vt 0.509317 0.910063 
vt 0.554743 0.863764 
vt 0.552313 0.916467 
vt 0.513779 0.793904 
vt 0.56808 0.794075 
vt 0.55658 0.724648 
vt 0.513368 0.72525 
vt 0.507478 0.725332 
vt 0.511835 0.655124 
vt 0.566091 0.65343 
vt 0.550793 0.584149 
vt 0.50554 0.655303 
vt 0.507914 0.586168 
vt 0.504385 0.540778 
vt 0.547 0.533444 
vt 0.499327 0.542238 
vt 0.502023 0.586422 
vt 0.49443 0.547267 
vt 0.497131 0.590856 
vt 0.415409 0.628406 
vt 0.500489 0.65724 
vt 0.417346 0.662692 
vt 0.418449 0.688338 

usemtl Tent1Mtl

f 1/1/1 2/2/2 3/3/3 
f 3/3/3 4/4/4 1/1/1 
f 5/5/5 6/6/6 7/7/7 
f 6/6/6 5/5/5 8/8/8 
f 9/9/9 10/10/10 11/11/11 
f 9/9/9 11/11/11 12/12/12 
f 13/13/13 14/14/14 15/15/15 
f 15/15/15 14/14/14 16/16/16 
f 17/17/17 18/18/18 19/19/19 
f 19/19/19 20/20/20 17/17/17 
f 21/21/21 22/22/22 23/23/23 
f 24/24/24 23/23/23 22/22/22 
f 25/25/25 26/26/26 27/27/27 
f 28/28/28 27/27/27 26/26/26 
f 29/29/29 30/30/30 31/31/31 
f 32/32/32 30/30/30 29/29/29 
f 33/33/33 34/34/34 35/35/35 
f 36/36/36 35/35/35 34/34/34 
f 35/35/35 36/36/36 37/37/37 
f 38/38/38 35/35/35 37/37/37 
f 39/39/39 36/36/36 34/34/34 
f 36/36/36 39/39/39 40/40/40 
f 34/34/34 41/41/41 39/39/39 
f 42/42/42 41/41/41 34/34/34 
f 34/34/34 33/33/33 42/42/42 
f 42/42/42 43/43/43 41/41/41 
f 43/43/43 42/42/42 44/44/44 
f 42/42/42 33/33/33 44/44/44 
f 44/44/44 45/45/45 43/43/43 
f 44/44/44 46/46/46 45/45/45 
f 46/46/46 47/47/47 45/45/45 
f 48/48/48 44/44/44 33/33/33 
f 48/48/48 46/46/46 44/44/44 
f 46/46/46 48/48/48 49/49/49 
f 49/49/49 47/47/47 46/46/46 
f 50/50/50 47/47/47 49/49/49 
f 51/51/51 49/49/49 48/48/48 
f 49/49/49 51/51/51 50/50/50 
f 33/33/33 52/52/52 48/48/48 
f 51/51/51 48/48/48 52/52/52 
f 52/52/52 33/33/33 53/53/53 
f 53/53/53 33/33/33 35/35/35 
f 53/53/53 35/35/35 38/38/38 
f 47/47/47 50/50/50 54/54/54 
f 51/51/51 54/54/54 50/50/50 
f 55/55/55 47/47/47 54/54/54 
f 56/56/56 47/47/47 55/55/55 
f 54/54/54 51/51/51 57/57/57 
f 54/54/54 57/57/57 55/55/55 
f 52/52/52 57/57/57 51/51/51 
f 55/55/55 58/58/58 56/56/56 
f 57/57/57 58/58/58 55/55/55 
f 58/58/58 59/59/59 56/56/56 
f 57/57/57 52/52/52 60/60/60 
f 60/60/60 58/58/58 57/57/57 
f 53/53/53 60/60/60 52/52/52 
f 59/59/59 58/58/58 61/61/61 
f 58/58/58 60/60/60 61/61/61 
f 61/61/61 62/62/62 59/59/59 
f 63/63/63 62/62/62 61/61/61 
f 61/61/61 60/60/60 63/63/63 
f 62/62/62 63/63/63 64/64/64 
f 60/60/60 53/53/53 65/65/65 
f 63/63/63 60/60/60 65/65/65 
f 38/38/38 65/65/65 53/53/53 
f 65/65/65 38/38/38 66/66/66 
f 67/67/67 65/65/65 66/66/66 
f 63/63/63 65/65/65 67/67/67 
f 67/67/67 64/64/64 63/63/63 
f 64/64/64 67/67/67 68/68/68 
f 69/69/69 70/70/70 71/71/71 
f 71/71/71 72/72/72 69/69/69 
f 69/69/69 72/72/72 73/73/73 
f 72/72/72 71/71/71 74/74/74 
f 73/73/73 75/75/75 69/69/69 
f 75/75/75 70/70/70 69/69/69 
f 73/73/73 76/76/76 75/75/75 
f 77/77/77 74/74/74 71/71/71 
f 74/74/74 77/77/77 78/78/78 
f 77/77/77 71/71/71 79/79/79 
f 79/79/79 71/71/71 70/70/70 
f 80/80/80 77/77/77 79/79/79 
f 79/79/79 81/81/81 80/80/80 
f 82/82/82 75/75/75 76/76/76 
f 81/81/81 79/79/79 83/83/83 
f 70/70/70 83/83/83 79/79/79 
f 76/76/76 84/84/84 82/82/82 
f 70/70/70 75/75/75 85/85/85 
f 75/75/75 82/82/82 85/85/85 
f 83/83/83 70/70/70 86/86/86 
f 85/85/85 86/86/86 70/70/70 
f 81/81/81 83/83/83 87/87/87 
f 88/88/88 81/81/81 87/87/87 
f 87/87/87 89/89/89 88/88/88 
f 87/87/87 83/83/83 90/90/90 
f 86/86/86 90/90/90 83/83/83 
f 89/89/89 87/87/87 91/91/91 
f 90/90/90 91/91/91 87/87/87 
f 92/92/92 89/89/89 91/91/91 
f 89/89/89 92/92/92 93/93/93 
f 92/92/92 91/91/91 94/94/94 
f 95/95/95 94/94/94 91/91/91 
f 91/91/91 90/90/90 95/95/95 
f 95/95/95 96/96/96 94/94/94 
f 96/96/96 95/95/95 97/97/97 
f 90/90/90 97/97/97 95/95/95 
f 98/98/98 96/96/96 97/97/97 
f 97/97/97 90/90/90 99/99/99 
f 86/86/86 99/99/99 90/90/90 
f 97/97/97 100/100/100 98/98/98 
f 99/99/99 100/100/100 97/97/97 
f 84/84/84 98/98/98 100/100/100 
f 100/100/100 99/99/99 101/101/101 
f 84/84/84 100/100/100 101/101/101 
f 99/99/99 86/86/86 102/102/102 
f 102/102/102 101/101/101 99/99/99 
f 86/86/86 85/85/85 102/102/102 
f 84/84/84 101/101/101 103/103/103 
f 101/101/101 102/102/102 103/103/103 
f 103/103/103 104/104/104 84/84/84 
f 103/103/103 102/102/102 104/104/104 
f 102/102/102 85/85/85 104/104/104 
f 84/84/84 104/104/104 82/82/82 
f 104/104/104 85/85/85 82/82/82 
f 105/105/105 106/106/106 107/107/107 
f 108/108/108 105/105/105 107/107/107 
f 108/108/108 109/109/109 105/105/105 
f 110/110/110 108/108/108 107/107/107 
f 109/109/109 111/111/111 105/105/105 
f 111/111/111 109/109/109 112/112/112 
f 113/113/113 105/105/105 111/111/111 
f 105/105/105 113/113/113 106/106/106 
f 112/112/112 114/114/114 111/111/111 
f 114/114/114 113/113/113 111/111/111 
f 114/114/114 112/112/112 115/115/115 
f 115/115/115 116/116/116 114/114/114 
f 116/116/116 115/115/115 117/117/117 
f 116/116/116 118/118/118 114/114/114 
f 113/113/113 114/114/114 118/118/118 
f 118/118/118 116/116/116 119/119/119 
f 118/118/118 119/119/119 120/120/120 
f 118/118/118 121/121/121 113/113/113 
f 121/121/121 118/118/118 120/120/120 
f 122/122/122 113/113/113 121/121/121 
f 122/122/122 106/106/106 113/113/113 
f 120/120/120 123/123/123 121/121/121 
f 123/123/123 120/120/120 124/124/124 
f 123/123/123 124/124/124 125/125/125 
f 126/126/126 121/121/121 123/123/123 
f 121/121/121 126/126/126 122/122/122 
f 127/127/127 123/123/123 125/125/125 
f 123/123/123 127/127/127 126/126/126 
f 125/125/125 128/128/128 127/127/127 
f 128/128/128 125/125/125 129/129/129 
f 130/130/130 127/127/127 128/128/128 
f 127/127/127 130/130/130 131/131/131 
f 131/131/131 126/126/126 127/127/127 
f 131/131/131 130/130/130 132/132/132 
f 131/131/131 132/132/132 133/133/133 
f 126/126/126 131/131/131 133/133/133 
f 132/132/132 134/134/134 133/133/133 
f 133/133/133 135/135/135 126/126/126 
f 122/122/122 126/126/126 135/135/135 
f 133/133/133 134/134/134 136/136/136 
f 136/136/136 135/135/135 133/133/133 
f 134/134/134 110/110/110 136/136/136 
f 122/122/122 135/135/135 137/137/137 
f 106/106/106 122/122/122 137/137/137 
f 135/135/135 136/136/136 138/138/138 
f 110/110/110 138/138/138 136/136/136 
f 138/138/138 137/137/137 135/135/135 
f 138/138/138 110/110/110 139/139/139 
f 137/137/137 138/138/138 139/139/139 
f 110/110/110 140/140/140 139/139/139 
f 140/140/140 137/137/137 139/139/139 
f 137/137/137 140/140/140 106/106/106 
f 110/110/110 107/107/107 140/140/140 
f 107/107/107 106/106/106 140/140/140 
f 141/141/141 142/142/142 143/143/143 
f 144/144/144 143/143/143 142/142/142 
f 145/145/145 144/144/144 142/142/142 
f 143/143/143 144/144/144 146/146/146 
f 142/142/142 147/147/147 145/145/145 
f 142/142/142 141/141/141 147/147/147 
f 148/148/148 145/145/145 147/147/147 
f 143/143/143 149/149/149 141/141/141 
f 149/149/149 143/143/143 146/146/146 
f 148/148/148 147/147/147 150/150/150 
f 150/150/150 151/151/151 148/148/148 
f 152/152/152 147/147/147 141/141/141 
f 152/152/152 150/150/150 147/147/147 
f 153/153/153 151/151/151 150/150/150 
f 152/152/152 153/153/153 150/150/150 
f 151/151/151 153/153/153 154/154/154 
f 155/155/155 154/154/154 153/153/153 
f 154/154/154 155/155/155 156/156/156 
f 157/157/157 155/155/155 153/153/153 
f 157/157/157 153/153/153 152/152/152 
f 158/158/158 155/155/155 157/157/157 
f 157/157/157 159/159/159 158/158/158 
f 152/152/152 160/160/160 157/157/157 
f 159/159/159 157/157/157 160/160/160 
f 161/161/161 152/152/152 141/141/141 
f 160/160/160 152/152/152 161/161/161 
f 161/161/161 141/141/141 149/149/149 
f 162/162/162 159/159/159 160/160/160 
f 163/163/163 159/159/159 162/162/162 
f 162/162/162 164/164/164 163/163/163 
f 162/162/162 160/160/160 165/165/165 
f 165/165/165 160/160/160 161/161/161 
f 164/164/164 162/162/162 166/166/166 
f 165/165/165 166/166/166 162/162/162 
f 167/167/167 164/164/164 166/166/166 
f 164/164/164 167/167/167 168/168/168 
f 167/167/167 166/166/166 169/169/169 
f 169/169/169 166/166/166 170/170/170 
f 166/166/166 165/165/165 170/170/170 
f 170/170/170 171/171/171 169/169/169 
f 171/171/171 170/170/170 172/172/172 
f 165/165/165 172/172/172 170/170/170 
f 173/173/173 171/171/171 172/172/172 
f 161/161/161 174/174/174 165/165/165 
f 172/172/172 165/165/165 174/174/174 
f 174/174/174 161/161/161 149/149/149 
f 172/172/172 175/175/175 173/173/173 
f 175/175/175 172/172/172 174/174/174 
f 144/144/144 173/173/173 175/175/175 
f 176/176/176 174/174/174 149/149/149 
f 174/174/174 176/176/176 175/175/175 
f 144/144/144 175/175/175 176/176/176 
f 176/176/176 149/149/149 146/146/146 
f 146/146/146 144/144/144 176/176/176 

