# This file is brought to you by Roblox Corporation
# Generated by Roblox Studio

mtllib MesaPraia.mtl

g Meshessmesinha1

v 1.49065 1.2712 -1.20433 
v 1.37746 -1.5 -1.25644 
v 1.27391 1.2712 -1.27391 
v 1.28585 -1.5 -1.28585 
v -1.28585 -1.5 -1.28585 
v -1.27391 1.2712 -1.27391 
v -1.25644 -1.5 -1.37746 
v -1.20433 1.2712 -1.49065 
v -1.37746 -1.5 1.25644 
v -1.27391 1.2712 1.27391 
v -1.49065 1.2712 1.20433 
v -1.28585 -1.5 1.28585 
v 1.27391 1.2712 1.27391 
v 1.25644 -1.5 1.37746 
v 1.28585 -1.5 1.28585 
v 1.20433 1.2712 1.49065 
v 1.37746 -1.5 1.25644 
v 1.27391 1.2712 1.27391 
v 1.28585 -1.5 1.28585 
v 1.49065 1.2712 1.20433 
v -1.27391 1.2712 1.27391 
v -1.25644 -1.5 1.37746 
v -1.20433 1.2712 1.49065 
v -1.28585 -1.5 1.28585 
v 1.27391 1.2712 -1.27391 
v 1.25644 -1.5 -1.37746 
v 1.20433 1.2712 -1.49065 
v 1.28585 -1.5 -1.28585 
v -1.27391 1.2712 -1.27391 
v -1.37746 -1.5 -1.25644 
v -1.49065 1.2712 -1.20433 
v -1.28585 -1.5 -1.28585 
v 1.49065 1.2712 1.20433 
v 1.27331 1.40951 1.27331 
v 1.27391 1.2712 1.27391 
v 1.49626 1.40849 1.20175 
v -1.27331 1.40951 1.27331 
v -1.20433 1.2712 1.49065 
v -1.20175 1.40849 1.49626 
v -1.27391 1.2712 1.27391 
v 1.20433 1.2712 -1.49065 
v 1.20175 1.40849 -1.49626 
v 1.27331 1.40951 -1.27331 
v 1.27391 1.2712 -1.27391 
v -1.49626 1.40849 -1.20175 
v -1.27331 1.40951 -1.27331 
v -1.49065 1.2712 -1.20433 
v -1.27391 1.2712 -1.27391 
v 1.27331 1.40951 -1.27331 
v 1.49626 1.40849 -1.20175 
v 1.49065 1.2712 -1.20433 
v 1.27391 1.2712 -1.27391 
v -1.20175 1.40849 -1.49626 
v -1.20433 1.2712 -1.49065 
v -1.27331 1.40951 -1.27331 
v -1.27391 1.2712 -1.27391 
v -1.27391 1.2712 1.27391 
v -1.27331 1.40951 1.27331 
v -1.49065 1.2712 1.20433 
v -1.49626 1.40849 1.20175 
v 1.27331 1.40951 1.27331 
v 1.20433 1.2712 1.49065 
v 1.27391 1.2712 1.27391 
v 1.20175 1.40849 1.49626 
v 1.00267 1.40836 -1.49813 
v 1.20175 1.40849 -1.49626 
v 1.0067 1.2704 -1.49533 
v 1.20433 1.2712 -1.49065 
v -1.49065 1.2712 -1.20433 
v -1.49533 1.2704 -1.0067 
v -1.49626 1.40849 -1.20175 
v -1.49814 1.40836 -1.00267 
v 1.49533 1.2704 1.0067 
v 1.49814 1.40836 1.00267 
v 1.49626 1.40849 1.20175 
v 1.49065 1.2712 1.20433 
v -1.49533 1.2704 1.0067 
v -1.49626 1.40849 1.20175 
v -1.49814 1.40836 1.00267 
v -1.49065 1.2712 1.20433 
v 1.49626 1.40849 -1.20175 
v 1.49533 1.2704 -1.0067 
v 1.49065 1.2712 -1.20433 
v 1.49814 1.40836 -1.00267 
v -1.20175 1.40849 -1.49626 
v -1.0067 1.2704 -1.49533 
v -1.20433 1.2712 -1.49065 
v -1.00267 1.40836 -1.49813 
v 1.20433 1.2712 1.49065 
v 1.20175 1.40849 1.49626 
v 1.0067 1.2704 1.49533 
v 1.00267 1.40836 1.49813 
v -1.0067 1.2704 1.49533 
v -1.20175 1.40849 1.49626 
v -1.20433 1.2712 1.49065 
v -1.00267 1.40836 1.49813 
v 1.17574 -1.5 1.37746 
v 1.20433 1.2712 1.49065 
v 1.0067 1.2704 1.49533 
v 1.25644 -1.5 1.37746 
v -1.20433 1.2712 1.49065 
v -1.25644 -1.5 1.37746 
v -1.17574 -1.5 1.37746 
v -1.0067 1.2704 1.49533 
v 1.20433 1.2712 -1.49065 
v 1.17574 -1.5 -1.37746 
v 1.0067 1.2704 -1.49533 
v 1.25644 -1.5 -1.37746 
v -1.49065 1.2712 -1.20433 
v -1.37746 -1.5 -1.17574 
v -1.49533 1.2704 -1.0067 
v -1.37746 -1.5 -1.25644 
v 1.49065 1.2712 1.20433 
v 1.37746 -1.5 1.17574 
v 1.49533 1.2704 1.0067 
v 1.37746 -1.5 1.25644 
v -1.37746 -1.5 1.17574 
v -1.49065 1.2712 1.20433 
v -1.49533 1.2704 1.0067 
v -1.37746 -1.5 1.25644 
v 1.49533 1.2704 -1.0067 
v 1.37746 -1.5 -1.17574 
v 1.49065 1.2712 -1.20433 
v 1.37746 -1.5 -1.25644 
v -1.0067 1.2704 -1.49533 
v -1.17574 -1.5 -1.37746 
v -1.20433 1.2712 -1.49065 
v -1.25644 -1.5 -1.37746 
v 1.49533 1.2704 1.0067 
v 1.49533 1.2704 -1.0067 
v 1.49814 1.40836 -1.00267 
v 1.49814 1.40836 1.00267 
v -1.49533 1.2704 -1.0067 
v -1.49814 1.40836 1.00267 
v -1.49814 1.40836 -1.00267 
v -1.49533 1.2704 1.0067 
v -1.00267 1.40836 -1.49813 
v 1.00267 1.40836 -1.49813 
v 1.0067 1.2704 -1.49533 
v -1.0067 1.2704 -1.49533 
v -1.0067 1.2704 1.49533 
v 1.0067 1.2704 1.49533 
v 1.00267 1.40836 1.49813 
v -1.00267 1.40836 1.49813 
v 1.49626 1.40849 -1.20175 
v 1.27331 1.40951 -1.27331 
v 1.40947 1.5 -1.13401 
v 1.20098 1.5 -1.20098 
v -1.40947 1.5 -1.13401 
v -1.27331 1.40951 -1.27331 
v -1.49626 1.40849 -1.20175 
v -1.20098 1.5 -1.20098 
v -1.20175 1.40849 -1.49626 
v -1.27331 1.40951 -1.27331 
v -1.13401 1.5 -1.40947 
v -1.20098 1.5 -1.20098 
v 1.27331 1.40951 1.27331 
v 1.13401 1.5 1.40947 
v 1.20175 1.40849 1.49626 
v 1.20098 1.5 1.20098 
v -1.20098 1.5 1.20098 
v -1.40947 1.5 1.13401 
v -1.27331 1.40951 1.27331 
v -1.49626 1.40849 1.20175 
v 1.27331 1.40951 -1.27331 
v 1.13247 1.5 -1.40735 
v 1.20098 1.5 -1.20098 
v 1.20175 1.40849 -1.49626 
v 1.27331 1.40951 1.27331 
v 1.40735 1.5 1.13247 
v 1.20098 1.5 1.20098 
v 1.49626 1.40849 1.20175 
v -1.13247 1.5 1.40735 
v -1.27331 1.40951 1.27331 
v -1.20175 1.40849 1.49626 
v -1.20098 1.5 1.20098 
v 1.40947 1.5 -1.13401 
v 1.49814 1.40836 -1.00267 
v 1.49626 1.40849 -1.20175 
v 1.40831 1.5 -1 
v -1.49626 1.40849 -1.20175 
v -1.49814 1.40836 -1.00267 
v -1.40947 1.5 -1.13401 
v -1.40831 1.5 -1 
v -1.00267 1.40836 -1.49813 
v -1.13401 1.5 -1.40947 
v -1 1.5 -1.40831 
v -1.20175 1.40849 -1.49626 
v 1.13401 1.5 1.40947 
v 1.00267 1.40836 1.49813 
v 1.20175 1.40849 1.49626 
v 1 1.5 1.40831 
v -1.49814 1.40836 1.00267 
v -1.40947 1.5 1.13401 
v -1.40831 1.5 1 
v -1.49626 1.40849 1.20175 
v 1 1.5 -1.40831 
v 1.13247 1.5 -1.40735 
v 1.00267 1.40836 -1.49813 
v 1.20175 1.40849 -1.49626 
v -1.20175 1.40849 1.49626 
v -1.00267 1.40836 1.49813 
v -1.13247 1.5 1.40735 
v -1 1.5 1.40831 
v 1.49814 1.40836 1.00267 
v 1.40735 1.5 1.13247 
v 1.49626 1.40849 1.20175 
v 1.40831 1.5 1 
v 1.40831 1.5 1 
v 1.49814 1.40836 -1.00267 
v 1.40831 1.5 -1 
v 1.49814 1.40836 1.00267 
v 1.00267 1.40836 -1.49813 
v -1.00267 1.40836 -1.49813 
v 1 1.5 -1.40831 
v -1 1.5 -1.40831 
v -1.49814 1.40836 -1.00267 
v -1.49814 1.40836 1.00267 
v -1.40831 1.5 -1 
v -1.40831 1.5 1 
v 1 1.5 1.40831 
v -1.00267 1.40836 1.49813 
v 1.00267 1.40836 1.49813 
v -1 1.5 1.40831 
v -1 1.5 -1 
v 1 1.5 1 
v 1 1.5 -1 
v -1 1.5 -1.40831 
v 1 1.5 -1.40831 
v -1.20098 1.5 -1.20098 
v -1.13401 1.5 -1.40947 
v -1.40831 1.5 -1 
v -1.40947 1.5 -1.13401 
v -1 1.5 1 
v 1.20098 1.5 -1.20098 
v 1.13247 1.5 -1.40735 
v 1.40831 1.5 -1 
v 1.40947 1.5 -1.13401 
v 1.40831 1.5 1 
v 1.20098 1.5 1.20098 
v 1.40735 1.5 1.13247 
v 1 1.5 1.40831 
v 1.13401 1.5 1.40947 
v -1 1.5 1.40831 
v -1.20098 1.5 1.20098 
v -1.13247 1.5 1.40735 
v -1.40831 1.5 1 
v -1.40947 1.5 1.13401 

vn 0.307087 0.00787402 -0.952756 
vn 0.307087 0.00787402 -0.952756 
vn 0.307087 0.00787402 -0.952756 
vn 0.307087 0.00787402 -0.952756 
vn -0.952756 0.00787402 -0.307087 
vn -0.952756 0.00787402 -0.307087 
vn -0.952756 0.00787402 -0.307087 
vn -0.952756 0.00787402 -0.307087 
vn -0.307087 0.00787402 0.952756 
vn -0.307087 0.00787402 0.952756 
vn -0.307087 0.00787402 0.952756 
vn -0.307087 0.00787402 0.952756 
vn 0.952756 0.00787402 0.307087 
vn 0.952756 0.00787402 0.307087 
vn 0.952756 0.00787402 0.307087 
vn 0.952756 0.00787402 0.307087 
vn 0.307087 0.00787402 0.952756 
vn 0.307087 0.00787402 0.952756 
vn 0.307087 0.00787402 0.952756 
vn 0.307087 0.00787402 0.952756 
vn -0.952756 0.00787402 0.307087 
vn -0.952756 0.00787402 0.307087 
vn -0.952756 0.00787402 0.307087 
vn -0.952756 0.00787402 0.307087 
vn 0.952756 0.00787402 -0.307087 
vn 0.952756 0.00787402 -0.307087 
vn 0.952756 0.00787402 -0.307087 
vn 0.952756 0.00787402 -0.307087 
vn -0.307087 0.00787402 -0.952756 
vn -0.307087 0.00787402 -0.952756 
vn -0.307087 0.00787402 -0.952756 
vn -0.307087 0.00787402 -0.952756 
vn 0.307087 0.00787402 0.952756 
vn 0.307087 0.00787402 0.952756 
vn 0.307087 0.00787402 0.952756 
vn 0.307087 0.00787402 0.952756 
vn -0.952756 0.00787402 0.307087 
vn -0.952756 0.00787402 0.307087 
vn -0.952756 0.00787402 0.307087 
vn -0.952756 0.00787402 0.307087 
vn 0.952756 0.00787402 -0.307087 
vn 0.952756 0.00787402 -0.307087 
vn 0.952756 0.00787402 -0.307087 
vn 0.952756 0.00787402 -0.307087 
vn -0.307087 0.00787402 -0.952756 
vn -0.307087 0.00787402 -0.952756 
vn -0.307087 0.00787402 -0.952756 
vn -0.307087 0.00787402 -0.952756 
vn 0.307087 0.00787402 -0.952756 
vn 0.307087 0.00787402 -0.952756 
vn 0.307087 0.00787402 -0.952756 
vn 0.307087 0.00787402 -0.952756 
vn -0.952756 0.00787402 -0.307087 
vn -0.952756 0.00787402 -0.307087 
vn -0.952756 0.00787402 -0.307087 
vn -0.952756 0.00787402 -0.307087 
vn -0.307087 0.00787402 0.952756 
vn -0.307087 0.00787402 0.952756 
vn -0.307087 0.00787402 0.952756 
vn -0.307087 0.00787402 0.952756 
vn 0.952756 0.00787402 0.307087 
vn 0.952756 0.00787402 0.307087 
vn 0.952756 0.00787402 0.307087 
vn 0.952756 0.00787402 0.307087 
vn 0.015748 -0.0314961 -1 
vn 0.015748 -0.0314961 -1 
vn 0.015748 -0.0314961 -1 
vn 0.015748 -0.0314961 -1 
vn -1 -0.0314961 -0.015748 
vn -1 -0.0314961 -0.015748 
vn -1 -0.0314961 -0.015748 
vn -1 -0.0314961 -0.015748 
vn 1 -0.0314961 0.015748 
vn 1 -0.0314961 0.015748 
vn 1 -0.0314961 0.015748 
vn 1 -0.0314961 0.015748 
vn -1 -0.0314961 0.015748 
vn -1 -0.0314961 0.015748 
vn -1 -0.0314961 0.015748 
vn -1 -0.0314961 0.015748 
vn 1 -0.0314961 -0.015748 
vn 1 -0.0314961 -0.015748 
vn 1 -0.0314961 -0.015748 
vn 1 -0.0314961 -0.015748 
vn -0.015748 -0.0314961 -1 
vn -0.015748 -0.0314961 -1 
vn -0.015748 -0.0314961 -1 
vn -0.015748 -0.0314961 -1 
vn 0.015748 -0.0314961 1 
vn 0.015748 -0.0314961 1 
vn 0.015748 -0.0314961 1 
vn 0.015748 -0.0314961 1 
vn -0.015748 -0.0314961 1 
vn -0.015748 -0.0314961 1 
vn -0.015748 -0.0314961 1 
vn -0.015748 -0.0314961 1 
vn 0.015748 -0.0393701 1 
vn 0.015748 -0.0393701 1 
vn 0.015748 -0.0393701 1 
vn 0.015748 -0.0393701 1 
vn -0.015748 -0.0393701 1 
vn -0.015748 -0.0393701 1 
vn -0.015748 -0.0393701 1 
vn -0.015748 -0.0393701 1 
vn 0.015748 -0.0393701 -1 
vn 0.015748 -0.0393701 -1 
vn 0.015748 -0.0393701 -1 
vn 0.015748 -0.0393701 -1 
vn -1 -0.0393701 -0.015748 
vn -1 -0.0393701 -0.015748 
vn -1 -0.0393701 -0.015748 
vn -1 -0.0393701 -0.015748 
vn 1 -0.0393701 0.015748 
vn 1 -0.0393701 0.015748 
vn 1 -0.0393701 0.015748 
vn 1 -0.0393701 0.015748 
vn -1 -0.0393701 0.015748 
vn -1 -0.0393701 0.015748 
vn -1 -0.0393701 0.015748 
vn -1 -0.0393701 0.015748 
vn 1 -0.0393701 -0.015748 
vn 1 -0.0393701 -0.015748 
vn 1 -0.0393701 -0.015748 
vn 1 -0.0393701 -0.015748 
vn -0.015748 -0.0393701 -1 
vn -0.015748 -0.0393701 -1 
vn -0.015748 -0.0393701 -1 
vn -0.015748 -0.0393701 -1 
vn 1 -0.023622 0 
vn 1 -0.023622 0 
vn 1 -0.023622 0 
vn 1 -0.023622 0 
vn -1 -0.023622 0 
vn -1 -0.023622 0 
vn -1 -0.023622 0 
vn -1 -0.023622 0 
vn 0 -0.023622 -1 
vn 0 -0.023622 -1 
vn 0 -0.023622 -1 
vn 0 -0.023622 -1 
vn 0 -0.023622 1 
vn 0 -0.023622 1 
vn 0 -0.023622 1 
vn 0 -0.023622 1 
vn 0.220472 0.708661 -0.669291 
vn 0.220472 0.708661 -0.669291 
vn 0.220472 0.708661 -0.669291 
vn 0.220472 0.708661 -0.669291 
vn -0.220472 0.708661 -0.669291 
vn -0.220472 0.708661 -0.669291 
vn -0.220472 0.708661 -0.669291 
vn -0.220472 0.708661 -0.669291 
vn -0.669291 0.708661 -0.220472 
vn -0.669291 0.708661 -0.220472 
vn -0.669291 0.708661 -0.220472 
vn -0.669291 0.708661 -0.220472 
vn 0.669291 0.708661 0.220472 
vn 0.669291 0.708661 0.220472 
vn 0.669291 0.708661 0.220472 
vn 0.669291 0.708661 0.220472 
vn -0.220472 0.708661 0.669291 
vn -0.220472 0.708661 0.669291 
vn -0.220472 0.708661 0.669291 
vn -0.220472 0.708661 0.669291 
vn 0.669291 0.716535 -0.220472 
vn 0.669291 0.716535 -0.220472 
vn 0.669291 0.716535 -0.220472 
vn 0.669291 0.716535 -0.220472 
vn 0.220472 0.716535 0.669291 
vn 0.220472 0.716535 0.669291 
vn 0.220472 0.716535 0.669291 
vn 0.220472 0.716535 0.669291 
vn -0.669291 0.716535 0.220472 
vn -0.669291 0.716535 0.220472 
vn -0.669291 0.716535 0.220472 
vn -0.669291 0.716535 0.220472 
vn 0.716535 0.692913 0 
vn 0.716535 0.692913 0 
vn 0.716535 0.692913 0 
vn 0.716535 0.692913 0 
vn -0.716535 0.692913 0 
vn -0.716535 0.692913 0 
vn -0.716535 0.692913 0 
vn -0.716535 0.692913 0 
vn 0 0.692913 -0.716535 
vn 0 0.692913 -0.716535 
vn 0 0.692913 -0.716535 
vn 0 0.692913 -0.716535 
vn 0 0.692913 0.716535 
vn 0 0.692913 0.716535 
vn 0 0.692913 0.716535 
vn 0 0.692913 0.716535 
vn -0.716535 0.692913 0 
vn -0.716535 0.692913 0 
vn -0.716535 0.692913 0 
vn -0.716535 0.692913 0 
vn 0.00787402 0.700787 -0.716535 
vn 0.00787402 0.700787 -0.716535 
vn 0.00787402 0.700787 -0.716535 
vn 0.00787402 0.700787 -0.716535 
vn -0.00787402 0.700787 0.716535 
vn -0.00787402 0.700787 0.716535 
vn -0.00787402 0.700787 0.716535 
vn -0.00787402 0.700787 0.716535 
vn 0.716535 0.700787 0.00787402 
vn 0.716535 0.700787 0.00787402 
vn 0.716535 0.700787 0.00787402 
vn 0.716535 0.700787 0.00787402 
vn 0.716535 0.700787 0 
vn 0.716535 0.700787 0 
vn 0.716535 0.700787 0 
vn 0.716535 0.700787 0 
vn 0 0.700787 -0.716535 
vn 0 0.700787 -0.716535 
vn 0 0.700787 -0.716535 
vn 0 0.700787 -0.716535 
vn -0.716535 0.700787 0 
vn -0.716535 0.700787 0 
vn -0.716535 0.700787 0 
vn -0.716535 0.700787 0 
vn 0 0.700787 0.716535 
vn 0 0.700787 0.716535 
vn 0 0.700787 0.716535 
vn 0 0.700787 0.716535 
vn 0 1 0 
vn 0 1 0 
vn 0 1 0 
vn 0 1 0 
vn 0 1 0 
vn 0 1 0 
vn 0 1 0 
vn 0 1 0 
vn 0 1 0 
vn 0 1 0 
vn 0 1 0 
vn 0 1 0 
vn 0 1 0 
vn 0 1 0 
vn 0 1 0 
vn 0 1 0 
vn 0 1 0 
vn 0 1 0 
vn 0 1 0 
vn 0 1 0 
vn 0 1 0 
vn 0 1 0 
vn 0 1 0 
vn 0 1 0 

vt 0.679342 0.527684 
vt 0.683978 0.360176 
vt 0.693091 0.52745 
vt 0.689789 0.360078 
vt 0.789957 0.36008 
vt 0.791867 0.527474 
vt 0.784145 0.36013 
vt 0.778117 0.527593 
vt 0.846173 0.52732 
vt 0.840078 0.359908 
vt 0.85383 0.359923 
vt 0.840361 0.527314 
vt 0.741296 0.359911 
vt 0.748369 0.527285 
vt 0.742557 0.527313 
vt 0.755047 0.359846 
vt 0.736745 0.527372 
vt 0.741296 0.359911 
vt 0.742557 0.527313 
vt 0.727545 0.360053 
vt 0.840078 0.359908 
vt 0.834549 0.52734 
vt 0.826327 0.359969 
vt 0.840361 0.527314 
vt 0.693091 0.52745 
vt 0.6956 0.359947 
vt 0.706839 0.527141 
vt 0.689789 0.360078 
vt 0.791867 0.527474 
vt 0.795769 0.359997 
vt 0.805617 0.527279 
vt 0.789957 0.36008 
vt 0.670027 0.71957 
vt 0.686759 0.720868 
vt 0.68048 0.727065 
vt 0.674334 0.713108 
vt 0.846236 0.721509 
vt 0.844935 0.738239 
vt 0.838479 0.733927 
vt 0.852427 0.727793 
vt 0.68866 0.544588 
vt 0.695124 0.548894 
vt 0.687363 0.561321 
vt 0.681165 0.555044 
vt 0.859436 0.569644 
vt 0.846969 0.561924 
vt 0.863718 0.563171 
vt 0.853235 0.555711 
vt 0.687363 0.561321 
vt 0.674823 0.56891 
vt 0.670605 0.562394 
vt 0.681165 0.555044 
vt 0.839353 0.549393 
vt 0.845862 0.545165 
vt 0.846969 0.561924 
vt 0.853235 0.555711 
vt 0.852427 0.727793 
vt 0.846236 0.721509 
vt 0.862979 0.720454 
vt 0.858761 0.713934 
vt 0.686759 0.720868 
vt 0.687828 0.737626 
vt 0.68048 0.727065 
vt 0.694344 0.733408 
vt 0.707045 0.548334 
vt 0.695145 0.547944 
vt 0.706921 0.539986 
vt 0.695139 0.539656 
vt 0.868751 0.569787 
vt 0.868385 0.581559 
vt 0.86046 0.569769 
vt 0.860037 0.581661 
vt 0.665428 0.701316 
vt 0.673776 0.701191 
vt 0.673386 0.71309 
vt 0.665098 0.713097 
vt 0.867781 0.702124 
vt 0.859749 0.713829 
vt 0.859444 0.701935 
vt 0.868033 0.713899 
vt 0.673791 0.569026 
vt 0.66577 0.580747 
vt 0.665501 0.568974 
vt 0.674107 0.580918 
vt 0.839236 0.548362 
vt 0.82751 0.540344 
vt 0.839284 0.540072 
vt 0.827339 0.548681 
vt 0.694401 0.742727 
vt 0.694456 0.734437 
vt 0.706173 0.742461 
vt 0.706348 0.734124 
vt 0.826711 0.742825 
vt 0.838483 0.734872 
vt 0.838489 0.74316 
vt 0.82659 0.734476 
vt 0.753243 0.527388 
vt 0.755047 0.359846 
vt 0.766985 0.360134 
vt 0.748369 0.527285 
vt 0.826327 0.359969 
vt 0.834549 0.52734 
vt 0.829676 0.527487 
vt 0.814392 0.360368 
vt 0.706839 0.527141 
vt 0.700469 0.359711 
vt 0.718765 0.526528 
vt 0.6956 0.359947 
vt 0.805617 0.527279 
vt 0.80064 0.359802 
vt 0.817548 0.526765 
vt 0.795769 0.359997 
vt 0.727545 0.360053 
vt 0.731873 0.527549 
vt 0.715613 0.360521 
vt 0.736745 0.527372 
vt 0.851047 0.527451 
vt 0.85383 0.359923 
vt 0.865766 0.360281 
vt 0.846173 0.52732 
vt 0.6674 0.527541 
vt 0.679103 0.360133 
vt 0.679342 0.527684 
vt 0.683978 0.360176 
vt 0.766177 0.527351 
vt 0.779271 0.360046 
vt 0.778117 0.527593 
vt 0.784145 0.36013 
vt 0.665428 0.701316 
vt 0.66577 0.580747 
vt 0.674107 0.580918 
vt 0.673776 0.701191 
vt 0.868385 0.581559 
vt 0.859444 0.701935 
vt 0.860037 0.581661 
vt 0.867781 0.702124 
vt 0.827339 0.548681 
vt 0.707045 0.548334 
vt 0.706921 0.539986 
vt 0.82751 0.540344 
vt 0.826711 0.742825 
vt 0.706173 0.742461 
vt 0.706348 0.734124 
vt 0.82659 0.734476 
vt 0.674823 0.56891 
vt 0.687363 0.561321 
vt 0.681527 0.573072 
vt 0.693817 0.567842 
vt 0.852694 0.573745 
vt 0.846969 0.561924 
vt 0.859436 0.569644 
vt 0.840449 0.568391 
vt 0.839353 0.549393 
vt 0.846969 0.561924 
vt 0.835195 0.5561 
vt 0.840449 0.568391 
vt 0.686759 0.720868 
vt 0.698506 0.726704 
vt 0.694344 0.733408 
vt 0.693282 0.714415 
vt 0.839797 0.714981 
vt 0.852041 0.709767 
vt 0.846236 0.721509 
vt 0.858761 0.713934 
vt 0.687363 0.561321 
vt 0.699234 0.555777 
vt 0.693817 0.567842 
vt 0.695124 0.548894 
vt 0.686759 0.720868 
vt 0.681219 0.709 
vt 0.693282 0.714415 
vt 0.674334 0.713108 
vt 0.834389 0.727039 
vt 0.846236 0.721509 
vt 0.838479 0.733927 
vt 0.839797 0.714981 
vt 0.681527 0.573072 
vt 0.674107 0.580918 
vt 0.673791 0.569026 
vt 0.681872 0.580934 
vt 0.86046 0.569769 
vt 0.860037 0.581661 
vt 0.852694 0.573745 
vt 0.852288 0.581613 
vt 0.827339 0.548681 
vt 0.835195 0.5561 
vt 0.827324 0.556446 
vt 0.839236 0.548362 
vt 0.698506 0.726704 
vt 0.706348 0.734124 
vt 0.694456 0.734437 
vt 0.706367 0.72636 
vt 0.859444 0.701935 
vt 0.852041 0.709767 
vt 0.851677 0.701905 
vt 0.859749 0.713829 
vt 0.707017 0.556084 
vt 0.699234 0.555777 
vt 0.707045 0.548334 
vt 0.695145 0.547944 
vt 0.838483 0.734872 
vt 0.82659 0.734476 
vt 0.834389 0.727039 
vt 0.826623 0.726725 
vt 0.673776 0.701191 
vt 0.681219 0.709 
vt 0.673386 0.71309 
vt 0.681527 0.701219 
vt 0.681527 0.701219 
vt 0.674107 0.580918 
vt 0.681872 0.580934 
vt 0.673776 0.701191 
vt 0.707045 0.548334 
vt 0.827339 0.548681 
vt 0.707017 0.556084 
vt 0.827324 0.556446 
vt 0.860037 0.581661 
vt 0.859444 0.701935 
vt 0.852288 0.581613 
vt 0.851677 0.701905 
vt 0.706367 0.72636 
vt 0.82659 0.734476 
vt 0.706348 0.734124 
vt 0.826623 0.726725 
vt 0.827677 0.58106 
vt 0.706006 0.701745 
vt 0.706488 0.580563 
vt 0.827324 0.556446 
vt 0.707017 0.556084 
vt 0.840449 0.568391 
vt 0.835195 0.5561 
vt 0.852288 0.581613 
vt 0.852694 0.573745 
vt 0.827188 0.702243 
vt 0.693817 0.567842 
vt 0.699234 0.555777 
vt 0.681872 0.580934 
vt 0.681527 0.573072 
vt 0.681527 0.701219 
vt 0.693282 0.714415 
vt 0.681219 0.709 
vt 0.706367 0.72636 
vt 0.698506 0.726704 
vt 0.826623 0.726725 
vt 0.839797 0.714981 
vt 0.834389 0.727039 
vt 0.851677 0.701905 
vt 0.852041 0.709767 

usemtl Meshessmesinha1Mtl

f 1/1/1 2/2/2 3/3/3 
f 3/3/3 2/2/2 4/4/4 
f 5/5/5 6/6/6 7/7/7 
f 8/8/8 7/7/7 6/6/6 
f 9/9/9 10/10/10 11/11/11 
f 10/10/10 9/9/9 12/12/12 
f 13/13/13 14/14/14 15/15/15 
f 14/14/14 13/13/13 16/16/16 
f 17/17/17 18/18/18 19/19/19 
f 18/18/18 17/17/17 20/20/20 
f 21/21/21 22/22/22 23/23/23 
f 22/22/22 21/21/21 24/24/24 
f 25/25/25 26/26/26 27/27/27 
f 26/26/26 25/25/25 28/28/28 
f 29/29/29 30/30/30 31/31/31 
f 30/30/30 29/29/29 32/32/32 
f 33/33/33 34/34/34 35/35/35 
f 34/34/34 33/33/33 36/36/36 
f 37/37/37 38/38/38 39/39/39 
f 38/38/38 37/37/37 40/40/40 
f 41/41/41 42/42/42 43/43/43 
f 41/41/41 43/43/43 44/44/44 
f 45/45/45 46/46/46 47/47/47 
f 46/46/46 48/48/48 47/47/47 
f 49/49/49 50/50/50 51/51/51 
f 49/49/49 51/51/51 52/52/52 
f 53/53/53 54/54/54 55/55/55 
f 54/54/54 56/56/56 55/55/55 
f 57/57/57 58/58/58 59/59/59 
f 59/59/59 58/58/58 60/60/60 
f 61/61/61 62/62/62 63/63/63 
f 62/62/62 61/61/61 64/64/64 
f 65/65/65 66/66/66 67/67/67 
f 66/66/66 68/68/68 67/67/67 
f 69/69/69 70/70/70 71/71/71 
f 71/71/71 70/70/70 72/72/72 
f 73/73/73 74/74/74 75/75/75 
f 73/73/73 75/75/75 76/76/76 
f 77/77/77 78/78/78 79/79/79 
f 78/78/78 77/77/77 80/80/80 
f 81/81/81 82/82/82 83/83/83 
f 82/82/82 81/81/81 84/84/84 
f 85/85/85 86/86/86 87/87/87 
f 86/86/86 85/85/85 88/88/88 
f 89/89/89 90/90/90 91/91/91 
f 91/91/91 90/90/90 92/92/92 
f 93/93/93 94/94/94 95/95/95 
f 94/94/94 93/93/93 96/96/96 
f 97/97/97 98/98/98 99/99/99 
f 98/98/98 97/97/97 100/100/100 
f 101/101/101 102/102/102 103/103/103 
f 103/103/103 104/104/104 101/101/101 
f 105/105/105 106/106/106 107/107/107 
f 106/106/106 105/105/105 108/108/108 
f 109/109/109 110/110/110 111/111/111 
f 110/110/110 109/109/109 112/112/112 
f 113/113/113 114/114/114 115/115/115 
f 114/114/114 113/113/113 116/116/116 
f 117/117/117 118/118/118 119/119/119 
f 118/118/118 117/117/117 120/120/120 
f 121/121/121 122/122/122 123/123/123 
f 124/124/124 123/123/123 122/122/122 
f 125/125/125 126/126/126 127/127/127 
f 127/127/127 126/126/126 128/128/128 
f 129/129/129 130/130/130 131/131/131 
f 131/131/131 132/132/132 129/129/129 
f 133/133/133 134/134/134 135/135/135 
f 134/134/134 133/133/133 136/136/136 
f 137/137/137 138/138/138 139/139/139 
f 137/137/137 139/139/139 140/140/140 
f 141/141/141 142/142/142 143/143/143 
f 141/141/141 143/143/143 144/144/144 
f 145/145/145 146/146/146 147/147/147 
f 147/147/147 146/146/146 148/148/148 
f 149/149/149 150/150/150 151/151/151 
f 150/150/150 149/149/149 152/152/152 
f 153/153/153 154/154/154 155/155/155 
f 156/156/156 155/155/155 154/154/154 
f 157/157/157 158/158/158 159/159/159 
f 158/158/158 157/157/157 160/160/160 
f 161/161/161 162/162/162 163/163/163 
f 162/162/162 164/164/164 163/163/163 
f 165/165/165 166/166/166 167/167/167 
f 166/166/166 165/165/165 168/168/168 
f 169/169/169 170/170/170 171/171/171 
f 170/170/170 169/169/169 172/172/172 
f 173/173/173 174/174/174 175/175/175 
f 174/174/174 173/173/173 176/176/176 
f 177/177/177 178/178/178 179/179/179 
f 178/178/178 177/177/177 180/180/180 
f 181/181/181 182/182/182 183/183/183 
f 183/183/183 182/182/182 184/184/184 
f 185/185/185 186/186/186 187/187/187 
f 186/186/186 185/185/185 188/188/188 
f 189/189/189 190/190/190 191/191/191 
f 190/190/190 189/189/189 192/192/192 
f 193/193/193 194/194/194 195/195/195 
f 194/194/194 193/193/193 196/196/196 
f 197/197/197 198/198/198 199/199/199 
f 198/198/198 200/200/200 199/199/199 
f 201/201/201 202/202/202 203/203/203 
f 203/203/203 202/202/202 204/204/204 
f 205/205/205 206/206/206 207/207/207 
f 205/205/205 208/208/208 206/206/206 
f 209/209/209 210/210/210 211/211/211 
f 210/210/210 209/209/209 212/212/212 
f 213/213/213 214/214/214 215/215/215 
f 216/216/216 215/215/215 214/214/214 
f 217/217/217 218/218/218 219/219/219 
f 219/219/219 218/218/218 220/220/220 
f 221/221/221 222/222/222 223/223/223 
f 222/222/222 221/221/221 224/224/224 
f 225/225/225 226/226/226 227/227/227 
f 227/227/227 228/228/228 225/225/225 
f 228/228/228 227/227/227 229/229/229 
f 228/228/228 230/230/230 225/225/225 
f 230/230/230 228/228/228 231/231/231 
f 230/230/230 232/232/232 225/225/225 
f 232/232/232 230/230/230 233/233/233 
f 232/232/232 234/234/234 225/225/225 
f 226/226/226 225/225/225 234/234/234 
f 235/235/235 229/229/229 227/227/227 
f 229/229/229 235/235/235 236/236/236 
f 237/237/237 235/235/235 227/227/227 
f 235/235/235 237/237/237 238/238/238 
f 227/227/227 226/226/226 237/237/237 
f 237/237/237 226/226/226 239/239/239 
f 240/240/240 239/239/239 226/226/226 
f 239/239/239 240/240/240 241/241/241 
f 226/226/226 242/242/242 240/240/240 
f 240/240/240 242/242/242 243/243/243 
f 234/234/234 242/242/242 226/226/226 
f 242/242/242 234/234/234 244/244/244 
f 244/244/244 234/234/234 245/245/245 
f 244/244/244 245/245/245 246/246/246 
f 234/234/234 247/247/247 245/245/245 
f 245/245/245 247/247/247 248/248/248 
f 234/234/234 232/232/232 247/247/247 

